<svg xmlns="http://www.w3.org/2000/svg" xml:space="preserve" width="100mm" height="100mm" version="1.1" style="shape-rendering:geometricPrecision; text-rendering:geometricPrecision; image-rendering:optimizeQuality; fill-rule:evenodd; clip-rule:evenodd"
viewBox="0 0 10000 10000"
 xmlns:xlink="http://www.w3.org/1999/xlink"
 xmlns:xodm="http://www.corel.com/coreldraw/odm/2003">
 <defs>
  <style type="text/css">
   <![CDATA[
    .fil0 {fill:#5f6368;fill-rule:nonzero}
   ]]>
  </style>
 </defs>
 <g id="Слой_x0020_1">
  <metadata id="CorelCorpID_0Corel-Layer"/>
  <path class="fil0" d="M4893.01 4233.86c0,16.75 -5.29,32.63 -16.76,46.74 -11.46,13.23 -29.98,24.69 -55.56,33.51 -25.58,7.94 -59.97,15 -103.19,20.29 -42.33,5.29 -97.01,7.94 -161.39,7.94 -67.03,0 -122.59,-2.65 -166.69,-7.94 -44.1,-5.29 -77.61,-12.35 -103.19,-20.29 -24.69,-8.82 -42.33,-20.28 -53.8,-33.51 -11.46,-14.11 -16.76,-29.99 -16.76,-46.74l0 -1352.03 -1254.12 0 0 1352.03c0,16.75 -5.29,32.63 -15.88,46.74 -9.7,13.23 -28.22,24.69 -53.79,33.51 -25.58,7.94 -59.98,15 -103.19,20.29 -42.34,5.29 -97.9,7.94 -164.04,7.94 -65.27,0 -119.95,-2.65 -164.05,-7.94 -44.09,-5.29 -78.49,-12.35 -104.07,-20.29 -25.57,-8.82 -44.09,-20.28 -55.56,-33.51 -11.46,-14.11 -16.75,-29.99 -16.75,-46.74l0 -3159.13c0,-16.76 5.29,-32.63 16.75,-46.74 11.47,-13.23 29.99,-24.7 55.56,-33.52 25.58,-8.82 59.98,-14.99 104.07,-20.28 44.1,-5.29 98.78,-7.94 164.05,-7.94 66.14,0 121.7,2.65 164.04,7.94 43.21,5.29 77.61,12.34 103.19,20.28 25.57,8.82 44.09,20.29 53.79,33.52 10.59,14.11 15.88,29.98 15.88,46.74l0 1230.31 1254.12 0 0 -1230.31c0,-16.76 5.3,-32.63 16.76,-46.74 11.47,-13.23 29.11,-24.7 53.8,-33.52 25.58,-7.94 59.09,-14.99 103.19,-20.28 44.1,-5.29 99.66,-7.94 166.69,-7.94 64.38,0 119.06,2.65 161.39,7.94 43.22,5.29 77.61,11.46 103.19,20.28 25.58,8.82 44.1,20.29 55.56,33.52 11.47,14.11 16.76,29.98 16.76,46.74l0 3159.13zm3020.66 -2235.73c0,188.73 -29.11,354.54 -88.2,499.18 -58.2,145.52 -143.75,267.23 -256.64,366 -112.01,99.66 -249.59,174.63 -412.75,226.66 -163.16,52.04 -355.43,77.61 -576.79,77.61l-279.58 0 0 1066.28c0,17.63 -5.29,32.63 -16.76,46.74 -11.46,13.23 -29.98,24.69 -55.56,33.51 -25.58,8.82 -59.97,15 -103.19,20.29 -42.33,5.29 -97.89,7.94 -164.04,7.94 -65.26,0 -119.94,-2.65 -164.04,-7.94 -44.1,-5.29 -78.49,-12.35 -104.07,-20.29 -25.58,-8.82 -44.1,-20.28 -53.8,-33.51 -10.58,-14.11 -15.87,-29.99 -15.87,-46.74l0 -3008.32c0,-81.14 21.16,-141.99 63.5,-182.56 42.33,-40.57 97.89,-60.86 166.68,-60.86l788.46 0c79.38,0 155.22,2.65 226.66,8.82 71.44,6.18 156.99,19.41 257.53,38.81 99.66,20.28 201.08,56.44 303.39,110.24 102.3,52.92 190.5,120.83 262.82,202.85 72.32,82.02 127.88,177.27 165.8,287.51 37.93,109.37 56.45,231.96 56.45,367.78zm-709.09 49.38c0,-117.29 -21.16,-214.31 -62.61,-290.16 -41.45,-75.84 -92.61,-132.29 -153.46,-168.45 -60.86,-36.16 -124.36,-59.09 -190.5,-68.79 -67.03,-9.7 -135.82,-14.11 -207.26,-14.11l-291.04 0 0 1137.71 306.92 0c109.36,0 200.2,-14.99 274.28,-44.1 73.2,-29.1 134.06,-70.55 180.8,-123.47 46.74,-52.04 82.02,-115.54 106.71,-188.74 23.82,-73.2 36.16,-153.46 36.16,-239.89z"/>
  <path class="fil0" d="M5239.61 6174.65c0,49.39 -1.76,92.61 -6.17,128.77 -4.41,36.16 -10.59,65.26 -18.52,86.43 -7.94,22.05 -16.76,37.04 -28.22,44.98 -11.47,8.82 -24.7,13.23 -39.69,13.23 -22.93,0 -59.09,-15.88 -108.48,-46.75 -50.27,-30.87 -116.42,-65.26 -199.32,-101.42 -82.9,-36.16 -180.8,-70.56 -295.45,-101.43 -114.66,-30.86 -247.83,-46.74 -399.52,-46.74 -161.4,0 -307.8,28.22 -438.33,83.79 -131.41,56.44 -243.42,135.82 -336.02,238.12 -92.61,103.19 -164.04,225.78 -214.31,370.42 -50.27,143.76 -74.97,302.51 -74.97,477.13 0,191.38 25.58,359.83 75.85,506.24 51.15,145.52 122.59,267.23 213.43,366 91.72,97.9 201.96,171.98 329.85,222.25 128.76,50.28 270.75,74.97 425.09,74.97 75.85,0 150.82,-8.82 224.9,-25.58 74.96,-17.64 143.76,-44.09 207.26,-78.49l0 -779.64 -632.36 0c-30.87,0 -54.68,-19.4 -72.32,-58.21 -16.75,-38.8 -25.57,-104.07 -25.57,-197.55 0,-47.63 1.76,-88.2 6.17,-120.83 4.41,-32.63 11.46,-59.09 19.4,-78.49 8.82,-20.29 19.41,-34.4 30.87,-44.1 12.35,-9.7 26.46,-14.11 41.45,-14.11l1128.89 0c27.34,0 52.04,4.41 73.2,14.11 22.05,9.7 40.57,23.81 57.33,43.22 15.87,18.52 29.1,41.45 37.04,67.91 8.82,27.34 13.23,58.2 13.23,92.6l0 1333.5c0,52.03 -8.82,97.01 -27.34,135.82 -17.64,38.81 -54.68,69.67 -111.13,91.72 -55.56,22.93 -125.23,45.86 -208.13,70.56 -82.91,23.81 -168.46,44.98 -257.53,61.73 -88.2,17.64 -178.16,30.87 -269,38.81 -89.95,8.82 -180.79,13.23 -272.52,13.23 -267.23,0 -506.23,-38.81 -717.9,-115.54 -210.78,-76.73 -389.82,-187.85 -536.22,-333.37 -146.4,-145.52 -258.41,-322.79 -336.02,-532.7 -77.61,-209.9 -116.42,-447.14 -116.42,-712.61 0,-274.28 41.45,-520.35 124.35,-738.19 82.03,-218.72 199.32,-403.93 351.02,-556.5 151.69,-152.58 334.26,-269 549.45,-350.14 214.31,-81.13 453.32,-121.7 716.14,-121.7 145.52,0 276.93,9.7 395.99,29.98 118.18,20.29 222.25,44.1 311.33,73.2 88.19,28.23 162.28,59.09 220.49,91.73 59.09,33.51 99.66,61.73 122.59,86.43 23.81,23.81 40.57,58.21 50.27,102.3 10.58,43.22 15.87,108.48 15.87,194.91zm2525.01 2540c0,51.16 -1.76,95.25 -6.17,130.53 -4.41,35.28 -11.46,64.38 -19.4,87.31 -8.82,23.82 -19.4,40.57 -32.63,50.27 -13.23,10.59 -28.23,15.88 -44.98,15.88l-1531.94 0c-56.45,0 -104.07,-16.76 -142.88,-50.27 -38.8,-33.51 -58.2,-88.2 -58.2,-164.04l0 -3037.42c0,-16.76 5.29,-32.63 16.75,-46.74 11.47,-13.23 29.99,-24.7 55.56,-33.52 25.58,-8.82 60.86,-14.99 104.96,-20.28 44.09,-5.29 98.77,-7.94 164.04,-7.94 67.03,0 122.59,2.65 165.8,7.94 42.34,5.29 77.61,11.46 103.19,20.28 25.58,8.82 44.1,20.29 55.56,33.52 11.47,14.11 16.76,29.98 16.76,46.74l0 2690.81 1050.4 0c16.75,0 32.63,4.41 44.98,14.11 13.23,9.71 23.81,24.7 32.63,46.75 8.82,21.16 14.99,49.39 19.4,85.55 4.41,35.27 6.17,78.49 6.17,130.52z"/>
 </g>
</svg>
