<svg id="Layer_1" data-name="Layer 1" xmlns="http://www.w3.org/2000/svg" viewBox="0 0 500 500">
    <defs>
        <style>
            .cls-1 {
                fill: #857E87;
            }

            .cls-2 {
                fill: #726874;
            }

            .cls-3 {
                fill: #5D5360;
            }

            .cls-4 {
                fill: #ECEAEC;
            }

            .cls-5 {
                fill: #CDCBCD;
            }

            .cls-6 {
                fill: #6F6571;
            }

            .cls-7 {
                fill: none;
                stroke: black;
                stroke-linecap: round;
                stroke-linejoin: round;
                stroke-width: 15px;
            }
            
            .name {
                fill: black;
                font: bold 80px sans-serif;
            }
        </style>
    </defs>
    <title>printer</title>
    <path class="cls-1" d="M467,139.45H33a25,25,0,0,0-25,25V391.86H113.42V352.72H386.58v39.14H492V164.45A25,25,0,0,0,467,139.45Z" />
    <rect class="cls-2" x="8" y="361.86" width="105.42" height="30" />
    <rect class="cls-2" x="386.58" y="361.86" width="105.42" height="30" />
    <rect class="cls-3" x="386.58" y="69.22" width="48.56" height="69.06" />
    <rect class="cls-3" x="64.86" y="69.22" width="48.56" height="69.06" />
    <rect class="cls-4" x="113.42" y="9.16" width="273.17" height="129.12" />
    <rect class="cls-5" x="113.42" y="108.28" width="273.17" height="30" />
    <rect class="cls-6" x="386.58" y="108.28" width="48.56" height="30" />
    <rect class="cls-6" x="64.86" y="108.28" width="48.56" height="30" />
    <rect class="cls-4" x="113.42" y="352.72" width="273.17" height="138.12" />
    <rect class="cls-5" x="113.42" y="352.72" width="273.17" height="30" />
    <rect class="cls-7" x="386.58" y="69.22" width="48.56" height="69.06" />
    <rect class="cls-7" x="64.86" y="69.22" width="48.56" height="69.06" />
    <rect class="cls-7" x="113.42" y="9.16" width="273.17" height="129.12" />
    <rect class="cls-7" x="113.42" y="352.72" width="273.17" height="138.12" />
    <path class="cls-7" d="M467,139.45H33a25,25,0,0,0-25,25V391.86H113.42V352.72H386.58v39.14H492V164.45A25,25,0,0,0,467,139.45Z" />
    <path class="cls-3" d="M410.14,293.63H89.86a25,25,0,0,0-25,25v73.23h48.56V352.72H386.58v39.14h48.56V318.63A25,25,0,0,0,410.14,293.63Z" />
    <rect class="cls-6" x="64.86" y="361.86" width="48.56" height="30" />
    <rect class="cls-6" x="386.58" y="361.86" width="48.56" height="30" />
    <path class="cls-7" d="M410.14,293.63H89.86a25,25,0,0,0-25,25v73.23h48.56V352.72H386.58v39.14h48.56V318.63A25,25,0,0,0,410.14,293.63Z" />
    <text x="170" y="246" class="name">DTF</text>
</svg>
