<?xml version="1.0" encoding="UTF-8"?>
<!DOCTYPE svg PUBLIC "-//W3C//DTD SVG 1.1//EN" "http://www.w3.org/Graphics/SVG/1.1/DTD/svg11.dtd">
<!-- Creator: CorelDRAW 2021 (64-Bit) -->
<svg xmlns="http://www.w3.org/2000/svg" xml:space="preserve" width="40mm" height="40mm" version="1.1" style="shape-rendering:geometricPrecision; text-rendering:geometricPrecision; image-rendering:optimizeQuality; fill-rule:evenodd; clip-rule:evenodd"
viewBox="0 0 3435.61 3435.61"
 xmlns:xlink="http://www.w3.org/1999/xlink"
 xmlns:xodm="http://www.corel.com/coreldraw/odm/2003">
 <defs>
  <style type="text/css">
   <![CDATA[
    .fil1 {fill:#FEFEFE}
    .fil0 {fill:#E53A24}
   ]]>
  </style>
 </defs>
 <g id="Слой_x0020_1">
  <metadata id="CorelCorpID_0Corel-Layer"/>
  <g id="_1987056840944">
   <rect class="fil0" x="-0.01" y="-0" width="3435.61" height="3435.61"/>
   <path class="fil1" d="M815.79 873.99l247.22 0 0 59.68 -247.22 299.32 0 -359zm168.02 1619.53c1.04,-12.53 -3.2,-25 -11.57,-34.31 -12.65,-10.73 -27.24,-18.89 -42.9,-24.09 -30.53,-9.71 -58.15,-26.86 -80.51,-49.73 -15.74,-18.64 -24.22,-42.34 -23.82,-66.75 -1.17,-29.23 11.29,-57.37 33.73,-76.2 24.01,-19.85 54.67,-29.99 85.83,-28.52 21.25,-0.4 42.27,4.55 61.15,14.39 17.35,9.3 31.67,23.46 41.18,40.72 9.77,18.45 14.71,39.01 14.4,59.87l-76.4 0c0.91,-14.05 -2.95,-28.06 -10.98,-39.7 -8.04,-9.25 -19.93,-14.18 -32.2,-13.49 -11.42,-0.69 -22.6,3.61 -30.63,11.77 -7.65,8.54 -11.64,19.72 -11,31.16 0.15,10.52 4.57,20.61 12.27,27.88 12.66,10.93 27.24,19.59 42.92,25.51 30.07,9.25 57.31,25.88 79.15,48.5 16.95,20.36 25.7,46.33 24.68,72.79 1.61,28.64 -9.76,56.52 -30.9,75.94 -23.38,19.52 -53.19,29.61 -83.64,28.34 -22.75,0.26 -45.24,-4.77 -65.67,-14.78 -19.27,-9.64 -35.34,-24.53 -46.39,-42.98 -11.36,-19.47 -17.15,-41.76 -16.7,-64.37l75.31 0c-1.35,16.57 3.07,33.08 12.45,46.84 11.11,10.01 26.08,14.71 41,12.86 26.15,0 39.24,-13.75 39.24,-41.63zm589.26 -54.94c2.52,41.7 -10.08,82.88 -35.4,116.1 -24.4,28.64 -60.64,44.45 -98.28,42.92 -37.59,1.41 -73.75,-14.4 -98.3,-42.92 -25.7,-32.51 -38.61,-73.38 -36.25,-114.81l0 -64.37c-2.56,-42.92 9.96,-85.38 35.4,-119.94 24.43,-28.92 60.92,-44.78 98.75,-42.93 37.46,-1.67 73.63,14.14 97.85,42.93 25.96,33.91 38.88,76.19 36.24,118.85l0 64.18zm-75.3 -62.45c1.74,-25.75 -3.2,-51.59 -14.39,-74.9 -15.61,-24.48 -48.12,-31.62 -72.59,-16.01 -6.42,4.11 -11.95,9.58 -16.06,16.01 -11.25,22.24 -16.32,47.02 -14.78,71.87l0 66.31c-1.41,24.61 3.86,49.16 15.24,71.07 9.51,15.02 26.46,23.71 44.2,22.74 17.16,1.02 33.47,-7.19 42.91,-21.47 11.12,-21.7 16.19,-46.05 14.58,-70.4l0.89 -65.22zm538.38 63.28l-116.73 0 0 151.76 -75.1 0 0 -372.11 206.04 0 0 62.9 -130.94 0 0 95.27 116.73 0 0 62.18zm512.05 -157.45l-91.88 0 0 309.21 -75.31 0 0 -309.21 -90.58 0 0 -62.9 257.56 0 0.21 62.9zm-396.15 -1407.97l245.94 0 0 726.41 338.64 0 -187.61 231.74 -396.97 0 0 -958.15zm-263.73 574.89l-3.85 10.07 -4.11 9.65 -4.7 9.89 -4.94 9.43 -5.33 9 -5.59 9.25 -6.05 8.81 -6.6 8.34 -6.48 8.36 -7.07 8.16 -7.27 7.96 -7.52 7.27 -8.15 7.52 -7.96 6.69 -8.36 6.86 -8.8 6.42 -9 5.98 -9.04 5.59 -9.65 5.39 -9.64 5.14 -9.89 4.7 -9.83 4.3 -10.53 3.86 -10.29 3.46 -10.73 3.41 -10.72 2.83 -10.99 2.32 -11.12 1.91 -11.17 1.55 -11.38 1.09 -11.62 0.64 -11.77 0.4 -14.58 -0.4 -14.39 -1.09 -13.93 -1.92 -14.21 -2.59 -13.75 -3.01 -13.3 -3.86 -13.31 -4.3 -13.04 -4.95 -12.45 -5.8 -12.27 -6.23 -12.02 -6.61 -11.36 -7.32 -11.11 -7.72 -11 -8.34 -10.47 -8.8 -9.89 -9.46 -9.43 -9.45 -9 -10.34 -8.41 -10.47 -8.16 -10.99 -7.27 -11.11 -6.89 -11.82 -6.41 -12.02 -5.59 -12.2 -5.15 -12.74 -4.48 -13.04 -3.86 -13.11 -3.48 -13.48 -2.37 -13.75 -1.93 -13.57 -1.29 -14.13 -0.18 -14.39 0.18 -14.39 1.29 -13.95 1.93 -13.93 2.37 -13.95 3.48 -13.55 3.86 -13.04 4.48 -13.12 5.15 -12.65 5.59 -12.46 6.41 -12.02 6.89 -11.82 7.27 -11.38 8.16 -10.91 8.41 -10.73 9 -10.09 9.43 -9.65 9.89 -9.25 10.47 -8.8 11 -8.34 11.11 -7.72 11.36 -7.52 12.02 -6.41 12.27 -6.5 12.45 -5.59 13.04 -5.14 13.31 -4.29 13.3 -3.61 13.75 -3.46 14.21 -2.13 13.93 -1.92 14.39 -1.29 14.58 -0.26 11.11 0.26 10.99 0.38 11.11 1.1 10.54 1.73 10.73 1.75 10.73 2.31 10.27 2.83 10.34 2.57 9.83 3.66 10.09 3.61 9.71 3.91 9.43 4.68 9.2 4.5 9.43 5.15 8.8 5.14 9.07 5.59 8.34 6.23 8.37 6.23 7.97 6.43 7.7 6.86 7.7 7.07 7.32 7.34 7.07 7.7 6.63 7.7 6.48 7.98 6.23 8.34 6.18 8.41 5.39 8.82 5.15 8.99 5.39 8.8 4.24 9.43 4.55 9.46 254.48 0 -5.15 -21.91 -6.03 -21.46 -7.07 -21.45 -7.72 -20.82 -8.98 -20.18 -9.71 -19.98 -10.29 -19.28 -11.36 -19.14 -12.21 -18.17 -12.73 -18.06 -13.49 -17.41 -14.39 -16.71 -14.76 -16.11 -15.68 -15.43 -16.32 -14.84 -16.95 -14.13 -17.61 -13.75 -17.8 -12.66 -18.88 -12.2 -19.34 -11.18 -19.47 -10.73 -20.43 -9.64 -20.36 -8.81 -21.47 -8.16 -21.25 -7.07 -22.3 -6.23 -22.11 -5.39 -22.74 -4.7 -23.18 -3.46 -23.39 -2.57 -23.4 -1.49 -9.89 -0.26 -24.66 0 -16.72 0.46 -26.84 2.19 -26.61 3.2 -25.95 4.5 -25.57 5.59 -25.31 7.06 -24.87 8.16 -23.83 9.46 -23.64 10.47 -22.74 11.36 -22.49 12.47 -21.28 13.3 -20.81 14.58 -20.16 15.49 -19.34 16.06 -18.45 17.41 -17.59 18.05 -16.7 18.63 -15.68 19.54 -14.84 20.36 -13.95 21.07 -12.84 21.85 -11.82 22.35 -10.29 22.74 -9.89 23.59 -8.16 24.01 -7.27 24.74 -5.85 25.05 -4.68 25.78 -3.48 25.77 -1.92 26.39 -0.82 26.61 0.82 26.59 1.92 26.22 3.48 25.95 4.68 25.31 5.85 24.93 7.27 24.4 8.16 24.3 9.89 23.38 10.29 22.74 11.82 22.3 12.84 21.9 13.95 21 14.84 20.18 15.68 19.55 16.7 18.88 17.59 18.05 18.45 16.95 19.34 16.53 20.16 15.22 20.81 14.39 21.28 13.75 22.49 12.4 22.74 11.38 23.64 10.53 23.83 9.25 24.87 8.16 25.31 6.81 25.57 5.84 25.95 4.7 26.61 3.2 26.84 2.19 27.24 0.64 24.22 -0.44 24.3 -1.49 23.77 -2.82 23.18 -3.66 23.2 -4.5 22.55 -5.59 22.11 -6.61 21.83 -7.32 21.73 -8.36 20.81 -9.25 20.36 -10.09 19.98 -10.73 19.27 -11.56 19.16 -12.46 18.17 -13.31 17.61 -13.73 16.95 -14.79 16.52 -15.23 15.66 -16.11 15.05 -16.71 14.39 -16.95 13.49 -18.05 12.91 -18.24 11.77 -18.89 11.36 -19.28 10.34 -20.16 9.46 -20.18 8.54 -20.81 7.78 -21.46 6.81 -21.73 5.84 -22.08 4.88 -22.3 -253.84 0zm-1072.52 -96.79l247.22 -299.58 0 778.54 -247.22 0 0 -478.96z"/>
  </g>
 </g>
</svg>
