<?xml version="1.0" encoding="UTF-8"?>
<!DOCTYPE svg PUBLIC "-//W3C//DTD SVG 1.1//EN" "http://www.w3.org/Graphics/SVG/1.1/DTD/svg11.dtd">
<!-- Creator: CorelDRAW 2021 (64-Bit) -->
<svg xmlns="http://www.w3.org/2000/svg" xml:space="preserve" width="200mm" height="50.0051mm" version="1.1" style="shape-rendering:geometricPrecision; text-rendering:geometricPrecision; image-rendering:optimizeQuality; fill-rule:evenodd; clip-rule:evenodd"
viewBox="0 0 19660.41 4915.6"
 xmlns:xlink="http://www.w3.org/1999/xlink"
 xmlns:xodm="http://www.corel.com/coreldraw/odm/2003">
 <defs>
  <style type="text/css">
   <![CDATA[
    .fil0 {fill:#FEFEFE}
   ]]>
  </style>
 </defs>
 <g id="Слой_x0020_1">
  <metadata id="CorelCorpID_0Corel-Layer"/>
  <path class="fil0" d="M5604.44 4031.85c0,0 4.42,40.24 -100.17,0.88 -131.64,-49.83 -196.1,-114.1 -196.1,-114.1 0,0 -174.35,-170.06 -27.9,-434.2 146.35,-264.04 566.69,-830.25 1583.78,-2093.53l-1012.85 132.7c0,0 -315.17,55.97 -404.2,-143.49l-75.32 -235.74 1927.42 -286.35c0,0 960.54,-133.87 1361.53,-52.9 0,0 201.33,20.78 268.38,174.35 67.02,153.54 106.18,300.67 106.18,300.67 0,0 -1216.01,-17.68 -1612.35,62.21 0,0 -64.47,43.31 -115.48,117.77 -51.01,74.48 -785.22,979.48 -1702.94,2571.74zm2552.17 -546.92c0,0 -454.92,403.86 -737.26,482.34 -282.39,78.42 -509.8,90.3 -745.18,-180.43 -235.29,-270.56 -86.22,-768.54 74.57,-995.99 160.8,-227.54 603.9,-607.86 968.7,-698.13 364.65,-90.19 631.31,-35.31 670.55,274.49 39.26,309.83 -376.51,572.55 -435.35,607.86 -58.78,35.42 -309.8,188.3 -878.4,250.98 0,0 -128.3,208.05 172.51,329.49 201.39,81.18 713.81,-192.23 1011.8,-443.13 0,0 388.33,-823.62 1184.43,-960.85 0,0 462.59,-82.38 309.71,337.29 0,0 -43.11,86.31 -129.34,145.06 -86.34,58.84 -117.69,66.74 -117.69,66.74 0,0 -62.69,23.54 -54.96,-62.81 7.92,-86.22 -90.07,-137.23 -203.89,-94.11 -113.73,43.12 -611.02,382.79 -564.63,776.46 31.35,266.69 345.11,251.07 552.95,94.12 207.84,-156.84 831.31,-635.36 1290.17,-1309.75 0,0 70.58,-109.88 192.14,-19.66l152.96 180.34c0,0 -603.9,607.85 -678.47,1007.87 0,0 -15.7,192.23 227.45,90.18 0,0 513.82,-462.7 1062.84,-1258.74 0,0 47.08,-82.47 149.03,-11.86 101.96,70.61 176.5,168.69 176.5,168.69 0,0 -505.9,658.78 -611.82,937.26 -105.88,278.46 98.03,188.27 98.03,188.27 0,0 490.26,-254.92 1247.15,-1274.55 61.71,-83.15 171.27,-5.22 171.27,-5.22 0,0 151.5,70.49 103.25,177.79 -53.21,117.85 -247.02,439.25 -247.02,439.25l584.21 -494.22c0,0 222.31,-207.87 431.45,-54.91 128.24,93.75 -23.54,329.4 -23.54,329.4l-192.14 321.68 592.16 -506.01c0,0 328.31,-302.89 552.98,-121.53 184.91,149.31 -141.23,482.39 -141.23,482.39l-490.28 529.44c0,0 -216.94,228.71 -90.19,329.49 108.3,85.82 305.98,-27.5 305.98,-27.5 0,0 337.29,-211.83 439.25,-325.53 102.04,-113.73 121.62,7.89 125.46,58.81 3.87,50.83 6.95,435.53 298.06,392.21 359.57,-53.7 274.52,-392.21 274.52,-392.21 0,0 -43.14,-141.1 -184.25,-227.42 -141.19,-86.22 -243.27,-160.79 -243.27,-160.79 0,0 -141.79,-120.56 -111.02,-274.52 34.39,-172.94 338.59,-302.08 338.59,-302.08 0,0 301.91,-141.13 909.84,-172.57 97.91,-4.93 188.18,4.05 211.81,82.39 23.34,78.5 0,192.22 -19.78,235.34 0,0 -737.88,36.6 -835.28,231.38 -43.13,86.25 125.46,231.32 125.46,231.32 0,0 342.55,230.49 258.91,517.76 -121.64,417.01 -584.32,585.59 -584.32,585.59 0,0 -368.76,143.88 -545.17,-56.15 0,0 -141.1,-192.11 -180.37,-333.33l-415.71 329.4c0,0 -321.6,243.12 -521.55,117.63 -200.03,-125.34 -94.11,-431.3 -94.11,-431.3 0,0 54.76,-247.14 313.67,-521.63 0,0 129.42,-215.68 -121.44,-98.12 -251.07,117.69 -909.97,796.16 -1082.42,1027.51 0,0 -45.9,68.03 -113.8,-3.96 -78.13,-82.64 -101.96,-117.63 -101.96,-117.63 0,0 -70.61,-78.43 31.35,-211.83 101.95,-133.31 509.86,-615.56 509.86,-615.56 0,0 137.23,-156.95 105.88,-207.87 -31.43,-51.04 -360.83,141.22 -360.83,141.22 0,0 -509.76,333.25 -1011.8,847.05 0,0 -83.56,95.29 -156.93,-3.96 0,0 -66.65,-98.09 -70.52,-176.5 0,0 -389.11,405.7 -556.94,317.69 -186.89,-98.08 -129.42,-294.16 -129.42,-294.16 0,0 22.25,-84.96 90.19,-203.91 31.43,-54.88 15.81,-78.42 -3.76,-86.22 -19.69,-7.92 -66.77,3.84 -106,51.03 -39.18,46.96 -217.78,344.51 -541.12,513.57 -254.92,133.42 -482.49,-164.71 -396.14,-376.42 0,0 41.73,-87.32 94.14,-172.57 31.35,-50.92 39.15,-78.42 11.77,-98 -27.58,-19.57 -117.69,70.61 -117.69,70.61 0,0 -403.91,466.55 -796.09,560.68 -392.22,94.23 -560.9,-144.96 -560.9,-144.96 0,0 -33.82,-34.1 -78.31,-188.27 -21.95,-76.14 -39.26,-141.22 -39.26,-141.22zm8307.07 -515.41c0,0 183.22,-388.62 521.24,-523.29 167.71,-66.65 240.48,89.99 154.86,218.35 -100.78,150.89 -343.73,354.6 -607.37,352.91 0,0 -104.02,11.28 -68.72,-47.97zm-13111.81 -362.26c31.95,3.56 52.7,-5.14 60.33,-11.86 6.61,-5.95 16.4,-33.04 16.4,-51.44 0,-24.1 -7.7,-69.61 -20.06,-119.63 0,-0.2 -85.95,-350.27 -85.95,-350.27 -3.76,-40.33 -21.64,-72.19 -29.27,-83.24 -48.25,-54.39 -64.06,-87.43 -64.06,-133.5 0,-42.13 17.39,-72.18 55.86,-120.64 16.33,-20.58 28.39,-57.18 28.39,-85.17 0,-68.31 -50.64,-143.86 -51.41,-144.57 -16.42,-22.62 -42.54,-30.63 -104.74,-16.1 -186.8,42.82 -733.43,339.96 -828.16,407.62 -43.71,21.15 -75.95,19.17 -89.42,-3.17 -9.3,-15.43 -13.52,-49.65 61.31,-104.04 88.21,-70.98 189.96,-128.17 288.36,-183.53l24.43 -13.63c107.09,-60.34 248.89,-138.44 396.26,-206.87l88.61 -39.76 88.69 -42.34c25.2,-12.86 57.03,-29.27 64.87,-48.85 4.45,-10.76 5.23,-20.35 2.36,-29.85 -4.86,-16.53 -19.09,-37 -39.65,-45.9 -21.26,-5.14 -75.26,8.01 -90.39,15.85 0.78,-0.52 -480.5,268.06 -480.5,268.06 -47.93,29.68 -89.27,32.84 -104.5,8.41 -3.16,-5.23 -4.86,-10.88 -4.86,-16.82 0,-22.74 24.72,-49.54 74.09,-80.09 212.77,-155.45 415.92,-282.99 505.78,-327.89 22.45,-12.25 65.76,-38.46 65.76,-72.39 0,-7.92 -1.18,-18.97 -4.16,-28.38 -1.18,-0.09 -108.76,-159.89 -111.72,-164.24 -0.81,-0.4 -11.88,-10.08 -11.88,-10.08 -28.87,-27.3 -73.17,-43.12 -177.91,21.15 -215.27,109.36 -764.09,733.8 -885.13,953.42 -46.07,79.91 -91.76,91.79 -116.76,77.73 -23.65,-13.63 -33.53,-52.01 -2.39,-107.58 209.14,-426.99 783.27,-964.9 987.58,-1117.2 21.27,-10.97 32.43,-20.96 35.39,-30.75 2.99,-9.78 -1.57,-19.37 -6.71,-28.59 -591.84,-600.91 -1758.1,-623.87 -2651.36,-439.63 -7.72,7.41 -182.35,148.11 -211.8,176.22 24.71,18.08 71.18,52.01 80.69,58.53 750.37,-95.73 1330.05,-148.43 2025.01,66.36 44.49,27.87 47.76,67.82 34.22,94.14 -14.04,27.39 -49.54,47.16 -89.9,31.32 -465.46,-163.36 -1409.04,-135.25 -1859.78,-44.29 -8.09,8.49 -162.66,141.02 -190.44,169.9 29.07,18.78 136.36,60.31 147.44,67.54 363.19,-87.32 1336.73,-151.21 1695.3,-6.83 51.81,27.9 43.64,65.76 40.08,76.95 -11.08,32.81 -49.46,54.85 -85.54,49.23 -443.53,-113.32 -1297.11,-32.64 -1598.51,54.6 -7.31,7.61 -173.26,155.23 -199.78,183.24 26.52,19.38 130.95,63.92 142,72.05 431.36,-88.87 1046.05,-146.9 1457.23,-76.81 51.01,15.13 66.94,51.7 61.11,81.75 -6.74,34.82 -39.56,58.76 -76.35,55.6 -399.7,-48.36 -1174.79,15.7 -1406.49,95.7 -6.4,6.55 -156.11,129.17 -183.93,156.84 28.6,20.17 142.31,69.83 154.78,78.53 299.23,-96.34 1025.87,-144.01 1270.71,-115.5 41.01,11.45 64.96,42.71 61.6,76.12 -3.07,30.86 -27.99,53.22 -62.21,56.29 -364.88,-29.96 -1026.23,46.07 -1225.82,122.43 -6.4,6.52 -180.46,156.92 -211.68,188.96 34.01,18.4 158.7,60.34 170.67,66.65 305.87,-100.26 877.52,-193.4 1140.25,-160.19 34.04,10.88 48.28,38.78 40.55,71.61 -7.72,32.81 -36.19,65.65 -65.87,61.11 -252.85,-17.22 -862.37,96.91 -1078.45,174.02 -6.64,7.52 -178.4,167.72 -204.89,197.57 29.77,19.58 163.76,79.11 178.28,88.82 209.94,-94.75 685.02,-195.79 972.57,-205.7 29.45,3.36 46.75,25.52 46.75,55.37l0 1c-0.37,31.43 -21.75,67.43 -61,71.39 -256.92,26.33 -789.93,161.4 -955.65,241.69 -5.35,5.94 -157.41,142.6 -186.41,174.44 34.53,17.79 169.22,63.48 183.93,71.38 245.17,-137.23 687.77,-222.68 833.94,-235.14 35.79,2.59 57.95,19.78 62.37,46.27 0.6,3.18 0.88,6.55 0.88,9.7 0,28.08 -19.78,57.56 -47.93,70.01 -229.52,43.31 -729.39,204.31 -816.54,256.32 0,0.97 -164.72,151.64 -212.01,203.65 30.86,16.82 136.97,49.83 151.91,58.16 195.41,-120.47 648.39,-295.62 796.33,-318.18 48.65,-0.2 62.6,23.54 66.86,37.78 1.48,5.34 2.38,10.68 2.38,16.01 0,25.32 -14.92,51.52 -32.35,63.21l-3.07 2.18 -3.53 0.83c-112.47,28.08 -694.32,270.94 -810,372.81 0,0.78 -128.16,128.36 -163.95,174.23 27.87,17.39 142.19,60.91 159.5,71.58 240.48,-181.35 562.97,-323.75 764.49,-379.92 28.08,-2.39 47.84,13.26 55.97,39.38 2.35,7.89 3.56,16.19 3.56,24.89 0,22.56 -8.61,45.9 -28.67,57.58 -273.72,82.26 -822.16,408.4 -964.16,560.5 35.3,21.35 218.63,105.16 240.19,118.23 87.52,-81.09 273.43,-196.56 311.58,-215.73 31.05,-11.08 66.47,-20.18 85.25,0.77 18.2,20.39 5.65,52.22 -5.34,74.18 -61.31,87.16 -196.39,201.7 -280.23,251.15 -39.56,26.49 -199.55,69.61 -324.76,-76.75l0 852.42c41.25,0 3293.72,-1.21 3335.17,-1.21 0,-37.57 0.97,-491.26 0.97,-511.81 -94.52,-71.42 -263.65,-132.53 -376.85,-153.69 -69.43,-18.2 -142.88,-78.91 -179.28,-139.04 -31.83,-61.11 -163.84,-135.85 -202.02,-153.68 -17.62,26.52 -149.91,229.62 -149.91,229.62 -23.83,37.37 -61.52,58.53 -81.49,53.79 -27.3,-6.34 -35.79,-20.75 -50.32,-55.77 -6.74,-27.1 -10.99,-76.72 -10.99,-97.71 -3.93,-15.41 1.6,-22.53 6.55,-25.69 12.74,-8.33 30.05,-5.54 46.56,2.75 19.4,9.7 39.95,-1.98 72.3,-54.96l20.96 -30.86c0,-1.01 75.83,-201.33 75.83,-201.33 4.65,-10.65 8.41,-32.8 8.41,-40.32 0,-19.38 -22.05,-42.34 -55.86,-65.68 -122.54,-74.95 -155.46,-111.75 -169.22,-140.02 -2.35,-4.74 0.21,-11.28 4.57,-12.86 21.15,-7.31 64.06,-3.56 244.24,49.46 -1.09,-0.2 346.5,90.76 346.5,90.76 120.24,24.92 202.1,-18.97 268.87,-149.32 26.79,-48.44 36.57,-100.45 36.57,-127.96 0,-39.95 -24.8,-70.98 -43,-90.59l-14.64 -17.39c-30.05,-33.82 -38.17,-54.77 -33.73,-83.08 4.45,-29.24 16.53,-45.87 37.49,-72.36 16.3,-20.78 20.95,-43.31 20.95,-46.67 0,-0.4 -13.55,-19 -13.63,-19.2 -11.08,-7.32 -32.04,-19.18 -57.66,-29.25l-128.93 -50.49c-21.08,-5.16 -29.28,-17.31 -27.39,-26.4 1.78,-8.7 9.18,-14.04 15.41,-16.42 30.28,-11.86 56.78,-14.84 87.8,-18.4 -2.27,0.4 122.62,-26.49 122.62,-26.49 24.55,-6.14 43.31,-21.96 36.6,-74.95 -16.82,-86.26 -31.46,-134.71 -1.9,-168.32 20.18,-22.73 49.66,-29.48 133.62,-32.83zm-1697.88 -352.42c11.86,-8.9 37.08,-14.44 62.69,-5.14 14.44,5.14 27.7,3.16 29.27,2.56 0.69,0 12.75,-2.38 19.09,-14.44 10.16,-19.38 29.74,-30.05 45.76,-31.23 33.24,-1.98 62.51,17.6 74.17,58.53l0.6 18 -0.2 3.96c-5.95,70.81 -47.28,125.58 -105.2,139.23 -52.61,12.66 -105.92,-13.05 -139.24,-67.45 -33.24,-63.7 1.58,-95.73 13.06,-104.02zm-69.43 1100.27c1.89,12.66 37.68,27.82 52.61,26.03 22.35,-2.35 58.81,-42.33 57.95,-56.66 -6.68,-109.72 10.05,-407.5 26.06,-451.19 15.41,-48.68 9.33,-73.6 34.85,-67.86 18.6,4.36 38.75,25.32 28.19,102.24 -14.16,102.41 -9.59,431.51 2.95,475.42 4.26,74.54 -33.52,90.99 -105.79,96.16 -43.52,2.75 -143.98,-3.39 -177.71,-41.94 -28.27,-32.84 -23.53,-57.41 -19.78,-97.34l0.89 -8.72c2.75,-30.83 64.99,-399.07 75.29,-435.64 16.76,-59.53 24.08,-87.04 52.39,-81.09 33.41,6.71 26.06,56.95 20,103.65 -31.55,115.61 -50.86,410.43 -47.9,436.92zm-68.44 -751.4c-10.71,-9.56 -19.32,-18.94 -25.49,-28.27 -21.32,-32.13 -30.37,-70.7 20.15,-101.39 36.31,-22.01 78.08,-33.89 111.72,0.81 9.21,9.54 16.85,16.39 27.61,24.2 9.61,6.8 19.86,12.65 30.51,17.54 42.82,19.63 68.77,27.41 115.33,19.14 107.73,-19.14 109.21,-9.24 127.73,13.98 23.02,28.94 25.4,92.97 -35.94,112.29 -40.33,21.21 -41.77,15.79 -85.77,21.75 -74.45,10.13 -150.52,-1.17 -215.22,-32.86 -9.87,-4.85 -19.51,-10.21 -28.84,-15.98 -14.76,-9.19 -28.76,-19.61 -41.8,-31.2zm-32.23 -507.68c42.14,-41.94 86.43,-41.14 109.68,-22.74 19.27,15.62 31.44,49.43 3.08,94.12 -39.38,49.65 -54.6,102.56 -46.3,133.41 7.46,50.98 -18.69,75.66 -88.43,78.08 -18.34,0.63 -44.32,-11.03 -50.64,-28.42 -3.42,-9.48 -5.2,-17.51 -6.49,-27.5 -1.78,-11.69 -2.56,-24.14 -2.56,-37.37 0,-20.69 2.12,-15.33 6.4,-37.51 10.71,-55.29 35.19,-111.86 75.26,-152.07zm-287.35 1429.84c17.19,-110.94 91.62,-479.21 158.64,-606.51 23.65,-66.65 65.9,-130.56 104.23,-117.28 31.25,10.82 32.64,56.96 4.16,140.83 -33.41,60.65 -99.91,425.56 -110.91,552.11 -8.69,45.9 -16.22,86.05 -0.09,109.18 9.91,14.44 29.28,23.54 59.14,28.48 23.28,7.95 50.92,6.86 50.92,-22.77 6.83,-60.5 32.2,-55.36 58.2,-53.84 30.83,1.83 67.45,11.14 67.45,64.35 0,11.45 6.55,24.97 -26.27,78.1 -74.42,120.41 -193.68,46.33 -299.23,31.66 -35.42,-4.91 -59.34,-17.6 -73.2,-39.15 -9.79,-14.83 -14.04,-33.44 -14.04,-54.99 0,-30.86 8.41,-67.63 20.99,-110.17zm-508.2 1269.31c-24.83,21.72 -65.36,16.79 -98.19,-11.69 -2.18,-2.38 -40.53,-47.68 -40.53,-47.68 -35.31,-42.31 -41.05,-38.14 -84.85,-5.5l-12.05 8.9c-37,27.3 -78.73,14.64 -100.66,-11.88 -23.37,-28.27 -21.47,-66.45 4.34,-90.36l1.38 -1 39.95 -25.32c8.33,-5.53 18,-16.82 19.98,-28.67 1.17,-8.29 -1.38,-16.01 -7.61,-24.13 -1.69,-2.18 -33.13,-54.37 -33.13,-54.37 -23.53,-37.77 -10.5,-75.35 13.06,-95.73 29.05,-25.12 69.61,-25.52 98.76,-0.8 3.45,3.56 187.98,257.9 187.98,257.9 53.79,84.05 22.53,121.05 11.57,130.35zm1150.36 -299.03c-176.82,17.79 -748.28,-84.85 -886.14,-159.02 -50.8,-27.5 -77.61,-72.18 -63.78,-106.4 8.52,-20.96 37.97,-51.81 138.84,-22.93 173.95,58.93 767.16,149.32 855.77,155.83 57.18,4.17 94.35,27.91 94.92,59.93 0.31,26.49 -23.5,60.5 -139.61,72.6zm54.39 -473.67c-81.37,16.61 -307.96,29.45 -416.6,3.16 -108.73,-26.3 -121.79,-27.12 -135.28,-114.61 -11.57,-75.09 113.35,-109.02 148.77,-43.86 8.96,16.53 22.8,22.39 40.42,26.78 16.36,4.08 33.24,5.43 50,6.72 36.79,2.58 189.39,-10.08 266.43,-17.4 4.14,-1.18 16.59,-4.77 16.59,-4.77 19.2,-4.73 30.86,-7.49 30.86,-70.78 0,-25.12 -1.78,-59.53 -5.74,-107.21 -5.63,-76.32 -8.1,-168.29 -8.1,-263.81 0,-244.45 15.62,-509.41 29.36,-581.22 8.61,-26.5 32.53,-100.67 77.05,-91.76 34.21,7.12 45.38,59.33 41.13,104.82 -28.99,146.11 -19.09,854.74 13.46,974.58 17.19,127.15 -65.27,161.75 -148.34,179.37zm241.06 -1571.76c-30.77,57.56 -66.86,65.65 -85.74,65.85 -26.73,0.4 -52.01,-14.04 -66.08,-37.78 -15.61,-26.49 -15.01,-59.53 1.61,-88.4l0.97 -1.58c23.45,-34.21 25.06,-80.17 7.46,-138.92 -21.18,-70.19 -67.17,-128.74 -117.28,-150.1 -24.34,-1.98 -44.89,-15.41 -54.3,-36.97 -8.88,-20.98 -5.43,-44.12 9.01,-59.53 11.08,-11.68 37.36,-28.7 90.38,-9.5 169.1,52.61 253.6,280.12 213.96,456.93zm250.81 1939.03c4.94,-30.86 34.31,-50.64 74.75,-50.64 86.43,0 213.21,-46.67 250.01,-61.11 69.6,-18.4 109.93,-11.68 122.01,19.38 15.01,38.18 -28.87,86.02 -66.28,105.8 2.18,-1.18 -19.95,14.44 -19.95,14.44l-120.07 76.92 -5.34 4.17c-28.88,9.7 -62.21,9.7 -98.97,0.6l-36.89 -12.05 -17.22 -6.14c-61.7,-20.38 -82.66,-55.78 -82.66,-83.27 0,-2.75 0.2,-5.34 0.6,-8.09zm585.42 -1947.61c-0.89,2.36 -112.35,221.71 -112.35,221.71 -41.74,68.03 -85.14,74.95 -112.35,59.53 -30.65,-17.82 -45.26,-69.64 -12.05,-131.52l122.42 -199.35c33.44,-31.66 76.75,-65.68 107.79,-44.92 21.38,14.44 23.65,48.08 6.55,94.55zm112.92 -241.28c-12.78,19.38 -32.04,29.25 -56.18,31.44 -74.17,14.23 -132.7,-36.4 -159.59,-63.3l-10.1 -9.07 -10.28 -12.65c-49.05,-60.53 -51.4,-100.3 -25.12,-109.6 15.53,-5.5 31.14,-0.77 53.91,21.96 38.26,38.18 113.81,62.72 122.62,63.9 77.7,0.97 106.89,43.89 84.74,77.32zm61.51 -340.57c-1,2.59 -37.48,63.09 -37.48,63.09 -5.63,19.38 -26.01,43.12 -45.79,51.21 -15.52,6.55 -53.9,-2.55 -53.9,-2.55 -18.89,-6.52 -41.62,-9.51 -88.49,0.6 -25.2,10.08 -46.07,16.99 -62.29,-5.37 -17.42,-24.11 8.7,-48.05 17.19,-58.53 23.25,-28.27 64.79,-75.75 155.54,-100.66 36.69,-10.08 83.76,-23.54 107.91,2.75 9.5,10.48 18.6,19.78 7.31,49.46zm14.04 -195.79c-0.4,0.29 -182.75,78.71 -182.75,78.71 -41.91,22.53 -73.08,36.6 -94.53,28.47 -15.12,-5.94 -21.56,-17.6 -20.75,-34.21 1.67,-31.63 37.87,-52.41 84.33,-75.84l179.97 -78.62c1.49,-0.6 67.05,-23.13 88.61,-11.08 18.31,10.48 27.01,25.92 24.71,45.7 -1.66,15.5 -31.35,26.21 -79.6,46.87zm12690.85 1735.39c0,0 99.37,-628.72 716.33,-1069.27 100.98,-71.96 452.31,-260.05 713.77,-177.67 261.43,82.26 235.32,396.02 235.32,396.02 0,0 -47.08,334.63 -411.73,535.87 -178.19,98.51 -585.69,213.21 -737.3,231.49 0,0 -56.18,160.8 129.45,274.61 185.59,113.64 541.2,-117.66 541.2,-117.66 0,0 420.83,-276.01 601.28,-444.5 180.49,-168.72 576.43,-652.34 576.43,-652.34l1052.36 -1232.74c0,0 54.96,-74.54 95.41,-9.19 40.64,65.45 150.4,215.65 52.33,375.16 -98,159.5 -946.45,1251.14 -946.45,1251.14 0,0 562.16,-482.37 870.58,-570.08 308.63,-87.52 394.88,133.46 260.18,401.36 0,0 -193.41,256.32 -441.81,468.05 -248.4,211.71 -368.67,445.68 -380.32,488.88 -11.86,43.14 -10.48,163.39 126.75,117.69 137.26,-45.78 253.57,-158.22 253.57,-158.22l212.98 -239.21c0,0 61.51,-74.46 77.24,-57.44 15.74,16.99 16.91,109.76 -20.95,198.66 -37.89,88.81 -236.63,457.45 -526.8,624.85 -290.31,167.31 -469.3,82.27 -545.14,28.67 -75.86,-53.61 -172.56,-209.02 -37.89,-495.39 134.7,-286.29 433.91,-558.12 433.91,-558.12l170.1 -171.27c0,0 36.48,-35.42 23.42,-48.36 -12.95,-13.06 -91.45,9.21 -133.39,34.01 -41.73,24.71 -653.55,418.29 -854.88,640.5 -201.32,222.31 -598.73,666.66 -598.73,666.66 0,0 -35.19,43.12 -77.13,1.27 -41.73,-41.91 -111.05,-124.18 -111.05,-124.18 0,0 -50.92,-130.63 30.05,-235.23 81,-104.62 183.02,-223.6 183.02,-223.6 0,0 19.57,-30.05 0,-44.49 -19.55,-14.23 -86.2,40.56 -86.2,40.56 0,0 -324.24,328.19 -726.92,449.78 -402.57,121.45 -790.78,-137.43 -718.99,-596.26zm-8623.8 -569.88c0,0 170.62,-332.36 550.34,-437.97 173.86,-48.36 185.56,111.26 92.8,207.96 -80.77,84.16 -371.26,352.91 -609.18,296.66 0,0 -75.81,-11.77 -33.96,-66.65z"/>
 </g>
</svg>
