<?xml version="1.0" encoding="UTF-8"?>
<!DOCTYPE svg PUBLIC "-//W3C//DTD SVG 1.1//EN" "http://www.w3.org/Graphics/SVG/1.1/DTD/svg11.dtd">
<!-- Creator: CorelDRAW 2021 (64-Bit) -->
<svg xmlns="http://www.w3.org/2000/svg" xml:space="preserve" width="63.644mm" height="22.9748mm" version="1.1" style="shape-rendering:geometricPrecision; text-rendering:geometricPrecision; image-rendering:optimizeQuality; fill-rule:evenodd; clip-rule:evenodd"
viewBox="0 0 6664.3 2405.74"
 xmlns:xlink="http://www.w3.org/1999/xlink"
 xmlns:xodm="http://www.corel.com/coreldraw/odm/2003">
 <defs>
  <style type="text/css">
   <![CDATA[
    .fil1 {fill:#FEFEFE}
    .fil0 {fill:#1C1B17}
   ]]>
  </style>
 </defs>
 <g id="Слой_x0020_1">
  <metadata id="CorelCorpID_0Corel-Layer"/>
  <g id="_1987052474512">
   <path class="fil0" d="M-0 1305.05l233.37 0 0 -588.14 435.45 588.14 294.45 0 -335.57 -453.25c172.26,-59.63 295.88,-222.4 295.88,-413.78 0,-239.49 -193.7,-434.07 -433.96,-437.91l0 -0.12 -256.25 0 -183.72 0 -49.65 0 0 1305.05zm6163.95 -910.63l52.15 0 0 821.1 -52.15 0 0 -224.81c-68.81,149.2 -219.69,252.87 -394.75,252.87 -239.92,0 -434.48,-194.57 -434.48,-434.49 0,-239.92 194.57,-434.48 434.48,-434.48 175.07,0 325.95,103.57 394.75,252.79l0 -232.97zm-394.75 34.82c209.73,0 379.85,170.13 379.85,379.85 0,209.74 -170.13,379.86 -379.85,379.86 -209.73,0 -379.85,-170.13 -379.85,-379.86 0,-209.73 170.13,-379.85 379.85,-379.85zm-4322.55 -108.53c269.67,0 488.38,218.71 488.38,488.38 0,269.68 -218.71,488.39 -488.38,488.39 -269.67,0 -488.38,-218.71 -488.38,-488.39 0,-269.67 218.71,-488.38 488.38,-488.38zm0 180.56c169.99,0 307.83,137.85 307.83,307.82 0,169.99 -137.84,307.84 -307.83,307.84 -169.97,0 -307.82,-137.85 -307.82,-307.84 0,-169.97 137.85,-307.82 307.82,-307.82zm1360.4 133.09c-59.92,-93.87 -166.59,-156.36 -288.2,-156.36 -187.27,0 -339.29,148.27 -339.29,331.1 0,182.85 152.02,331.1 339.29,331.1 123.66,0 231.93,-64.7 291.21,-161.28l161.6 0c-69.96,177.42 -246.19,303.41 -452.56,303.41 -267.71,0 -484.82,-211.92 -484.82,-473.26 0,-261.31 217.11,-473.23 484.82,-473.23 204.49,0 379.42,123.61 450.66,298.5l-162.72 0zm740.29 -275.91c150.14,0 283.07,73.42 364.98,186.35l0 -171.47 111.72 0 0 880.82 -111.72 0 0 -180.82c-81.92,112.92 -214.85,186.43 -364.98,186.43 -248.85,0 -450.65,-201.8 -450.65,-450.66 0,-248.85 201.8,-450.65 450.65,-450.65zm0 105.69c14.79,0 29.32,0.91 43.6,2.73 179.08,16.15 319.39,163.26 319.39,342.23 0,179.16 -140.61,326.36 -319.96,342.24 -14.09,1.75 -28.45,2.72 -43.04,2.72 -190.5,0 -344.95,-154.45 -344.95,-344.96 0,-190.5 154.45,-344.96 344.95,-344.96zm1489.28 774.02l84.4 0 0 -1238.09 -84.4 0 0 549.98c-81.3,-117.84 -217.25,-195.14 -371.2,-195.14 -248.85,0 -450.65,201.8 -450.65,450.65 0,248.86 201.8,450.66 450.65,450.66 153.96,0 289.91,-77.24 371.2,-195.08l0 177.03zm-371.2 -796.23c200.72,0 363.62,162.9 363.62,363.62 0,200.73 -162.9,363.62 -363.62,363.62 -200.73,0 -363.62,-162.89 -363.62,-363.62 0,-200.72 162.89,-363.62 363.62,-363.62zm-4432.04 205.75l0 -418.14 256.25 0 0 -0.09c112.77,3.76 203.08,95.73 203.08,208.59 0,113.9 -91.93,206.49 -206.08,208.72l-253.25 0.92z"/>
   <path class="fil1" d="M5661.28 1861.27c2.71,24.77 3.98,50.43 3.71,76.87 0,17.79 -1.07,35.32 -3.06,52.6l-146.4 0 -121.76 0 -389.37 0c15.88,128.3 113.65,217.19 246.57,217.19 62.74,0 133.72,-30.86 175.88,-79.45l44.82 0 0.04 -0.03 122.41 0 -0.06 0.03 65.83 0c-45.37,121.66 -146.86,217.31 -274.14,257.52 -141.75,44.79 -311.69,11.2 -427.54,-79.09 -100.83,-76.82 -170.99,-199.98 -170.99,-368.77 0,-153.79 49.96,-269.74 132.42,-347.25 78.21,-82.75 189.79,-134.52 313.67,-134.52 230.89,0 419.12,179.84 427.98,404.9zm-5138.86 512.64l-522.08 0 0 -455.74c141.84,182.93 319.21,338.08 522.08,455.74zm-442.45 -893.15l177.97 0c20.4,35.59 42.46,70.18 65.98,103.7 0.03,0.04 0.1,0.1 0.14,0.17l0 0.1 0 -0.1c245.14,348.74 656,577.47 1121.47,577.47 510.31,0 955.03,-274.84 1187.71,-681.33l177.91 0c-246.18,494.63 -765.16,835.6 -1365.61,835.6 -444.27,0 -843.9,-186.69 -1121.47,-484.19l0 -1.27 0 1.27c-97.57,-104.53 -180.07,-222.79 -244.08,-351.41zm267.77 0l135.56 0c213.62,300.43 565.33,496.63 962.95,496.63 397.62,0 749.33,-196.2 963,-496.63l135.55 0c-228.02,365.64 -634.71,609.26 -1098.54,609.26 -463.8,0 -870.49,-243.61 -1098.51,-609.26zm2791.51 0l188.67 0 0 341.88 -17.27 28.45c-111.39,195.8 -254.1,372.21 -421.55,522.82l-520.27 0c349.71,-202.8 623.68,-517.28 770.42,-893.15zm-2490.18 0l101.66 0c173.27,182.1 420.42,296.06 694.79,296.06 274.4,0 521.64,-113.96 694.89,-296.06l101.7 0c-188.03,226.42 -475.07,371.14 -796.59,371.14 -321.49,0 -608.42,-144.72 -796.45,-371.14zm377.77 0l144.61 0c86.77,36.86 182.18,57.25 282.34,57.25 100.2,0 195.63,-20.39 282.4,-57.25l128.19 0c-112.72,65.92 -279.1,120.72 -419.98,120.72 -140.89,0 -304.8,-54.81 -417.55,-120.72zm1275.54 893.15l-759.46 0c590.75,-35.52 1092.91,-391.93 1325.99,-893.15l234.98 0c-152.18,381.47 -438.12,697.56 -801.52,893.15zm1025.54 0l-408.22 0c153.08,-140.51 285.1,-302.63 390.95,-481.36l17.27 -31.19 0 512.56zm-1979.7 0l-759.39 0c-232.92,-125.35 -434.01,-300.23 -588.49,-510.12l0 -383.04 21.93 0c74.81,160.91 177.5,306.89 301.79,432.12 262.94,264.87 623.08,436.91 1024.17,461.04zm2562.79 -912.88c97.58,0 184.06,47.28 237.9,120.19 0.14,-0.09 0.32,-0.17 0.4,-0.26 56.82,-72.57 145.2,-119.21 244.5,-119.21 136.99,0 259.14,90.04 292.89,221.68 19.02,74.16 15.77,153.45 16.63,231.49l-0.58 456.94 -218.03 0c0,-161.32 0.5,-322.71 0.66,-484.02 0.07,-97.75 -3.62,-223.78 -139.41,-223.78 -44.26,0 -85.59,19.27 -109.29,52.86 -34.14,48.39 -28.93,110.08 -30.92,169.81l0.6 485.53 -215.92 0.31c-0.59,-178.34 -1.36,-356.71 -1.46,-535.05 -0.04,-89.92 -36.97,-176.7 -141.06,-176.7 -108.34,0 -141.04,87.57 -141.04,176.68 -0.02,178.27 -0.22,357.09 -0.37,535.48l-216.01 0.31 0 -887.5 215.87 0 0 57.57c53.11,-50.99 125.2,-82.32 204.63,-82.32zm2534.56 -1447.51l218.73 0 0 2360.43 -218.73 0 0 -74.8c-73.39,65.37 -166.73,104.56 -268.34,104.56 -236.23,0 -427.81,-211.56 -427.81,-472.43 0,-260.87 191.58,-472.42 427.81,-472.42 101.6,0 194.94,39.14 268.34,104.52l0 -1549.86zm0 2010.21c15.91,-64.85 12,-130.51 0,-182.09 -33.96,-105.97 -125.49,-181.9 -233.07,-181.9 -136.48,0 -247.17,122.23 -247.17,272.95 0,150.72 110.69,272.96 247.17,272.96 107.58,0 199.11,-75.96 233.07,-181.93zm-1257.76 -364.13l-0.06 0.01c-64.1,12.91 -121.06,54.07 -152.9,111.05l-0.86 1.55c-3.3,6 -6.34,12.18 -9.07,18.5l-0.13 0.31c-3.39,7.88 -6.31,15.97 -8.79,24.3l3.33 0 -0.01 0.06 420.63 0 -0.01 -0.06 10.66 0c-11.14,-37.53 -32.05,-70.98 -59.83,-97.48l-0.28 -0.28c-53.75,-51.13 -130.43,-71.79 -202.68,-57.97z"/>
  </g>
 </g>
</svg>
