<?xml version="1.0" encoding="UTF-8"?>
<!DOCTYPE svg PUBLIC "-//W3C//DTD SVG 1.1//EN" "http://www.w3.org/Graphics/SVG/1.1/DTD/svg11.dtd">
<!-- Creator: CorelDRAW 2021 (64-Bit) -->
<svg xmlns="http://www.w3.org/2000/svg" xml:space="preserve" width="280mm" height="134.098mm" version="1.1" style="shape-rendering:geometricPrecision; text-rendering:geometricPrecision; image-rendering:optimizeQuality; fill-rule:evenodd; clip-rule:evenodd"
viewBox="0 0 18831.47 9018.78"
 xmlns:xlink="http://www.w3.org/1999/xlink"
 xmlns:xodm="http://www.corel.com/coreldraw/odm/2003">
 <defs>
  <style type="text/css">
   <![CDATA[
    .fil0 {fill:#FEFEFE;fill-rule:nonzero}
    .fil2 {fill:#E42D24;fill-rule:nonzero}
    .fil1 {fill:#E31E24;fill-rule:nonzero}
   ]]>
  </style>
 </defs>
 <g id="Слой_x0020_1">
  <metadata id="CorelCorpID_0Corel-Layer"/>
  <g id="_2022555400784">
   <polygon class="fil0" points="-0,7647.97 2689.38,7647.97 2689.38,8063.36 -0,8063.36 "/>
   <path class="fil1" d="M2731.09 0l0 2742.83 -626.93 0 0 -2225.61 -940.4 0 -19.59 572.07c-13.06,389.22 -44.41,704.65 -94.04,946.28 -49.63,241.63 -132.57,427.1 -248.81,556.4 -116.24,129.31 -278.85,193.96 -487.83,193.96 -86.21,0 -190.7,-14.37 -313.47,-43.1l39.18 -536.81c33.96,10.45 71.84,15.68 113.63,15.68 151.51,0 257.31,-89.47 317.38,-268.41 60.08,-178.93 97.96,-459.09 113.63,-840.48l39.18 -1112.81 2108.06 0zm3162.09 0l-1167.66 2170.75c-112.32,208.98 -247.51,367.01 -405.54,474.12 -158.04,107.1 -329.79,160.65 -515.26,160.65 -143.67,0 -292.57,-31.35 -446.69,-94.04l152.82 -481.95c109.71,33.96 201.14,50.94 274.28,50.94 78.37,0 148.9,-18.94 211.59,-56.82 62.7,-37.88 120.16,-97.3 172.41,-178.29l23.51 -31.34 -1081.46 -2014.02 677.87 0 728.81 1473.29 752.32 -1473.29 623.01 0zm2613.52 0l0 2742.83 -626.93 0 0 -987.42c-237.71,86.2 -458.44,129.31 -662.2,129.31 -368.32,0 -650.44,-88.16 -846.35,-264.49 -195.92,-176.32 -293.88,-430.36 -293.88,-762.12l0 -858.11 626.93 0 0 787.59c0,188.08 50.29,329.79 150.85,425.13 100.57,95.35 246.2,143.02 436.9,143.02 208.98,0 404.89,-40.49 587.74,-121.47l0 -1234.27 626.93 0zm4302.31 0l0 2742.83 -3620.53 0 0 -2742.83 630.85 0 0 2225.61 865.95 0 0 -2225.61 630.85 0 0 2225.61 862.02 0 0 -2225.61 630.85 0zm681.79 0l630.85 0 0 1786.76 1308.72 -1786.76 595.58 0 0 2742.83 -626.93 0 0 -1782.84 -1308.72 1782.84 -599.5 0 0 -2742.83zm5340.67 2233.44l0 509.38 -2123.73 0 0 -2742.83 2072.79 0 0 509.38 -1441.94 0 0 595.59 1273.45 0 0 493.71 -1273.45 0 0 634.76 1492.88 0z"/>
   <path class="fil2" d="M1541.44 4107.84l-568.8 0 0 1442.32 -406.29 0 0 -1442.32 -566.26 0 0 -335.19 1541.35 0 0 335.19zm1635.31 1112.21l0 330.11 -1376.29 0 0 -1777.5 1343.28 0 0 330.11 -934.46 0 0 385.97 825.27 0 0 319.95 -825.27 0 0 411.37 967.47 0zm634.82 -1447.39l368.2 538.33 368.2 -538.33 482.46 0 -591.65 850.67 639.9 926.84 -485 0 -413.91 -589.12 -408.82 589.12 -474.84 0 634.82 -909.06 -594.19 -868.44 474.84 0zm3087.78 0l0 1777.5 -411.36 0 0 -728.78 -807.5 0 0 728.78 -411.36 0 0 -1777.5 411.36 0 0 700.85 807.5 0 0 -700.85 411.36 0zm1292.51 1807.98c-184.52,0 -350.84,-39.78 -498.97,-119.35 -148.12,-79.56 -264.08,-189.18 -347.88,-328.84 -83.79,-139.66 -125.69,-296.67 -125.69,-471.04 0,-174.37 41.9,-331.38 125.69,-471.04 83.8,-139.66 199.76,-249.27 347.88,-328.84 148.13,-79.57 314.45,-119.35 498.97,-119.35 184.52,0 350.42,39.78 497.7,119.35 147.28,79.56 263.24,189.18 347.88,328.84 84.65,139.66 126.96,296.67 126.96,471.04 0,174.37 -42.32,331.38 -126.96,471.04 -84.64,139.66 -200.6,249.27 -347.88,328.84 -147.28,79.57 -313.18,119.35 -497.7,119.35zm0 -350.43c104.96,0 199.75,-24.12 284.4,-72.37 84.65,-48.25 151.09,-115.54 199.34,-201.87 48.25,-86.34 72.37,-184.52 72.37,-294.56 0,-110.04 -24.12,-208.22 -72.37,-294.56 -48.25,-86.34 -114.69,-153.62 -199.34,-201.87 -84.64,-48.25 -179.44,-72.37 -284.4,-72.37 -104.96,0 -199.76,24.12 -284.4,72.37 -84.64,48.25 -151.09,115.54 -199.33,201.87 -48.25,86.34 -72.37,184.52 -72.37,294.56 0,110.04 24.12,208.22 72.37,294.56 48.24,86.34 114.69,153.62 199.33,201.87 84.64,48.25 179.44,72.37 284.4,72.37zm2823.69 -1457.55l0 1777.5 -406.28 0 0 -1442.32 -609.43 0 -12.7 370.74c-8.46,252.23 -28.78,456.65 -60.94,613.23 -32.17,156.59 -85.91,276.78 -161.24,360.58 -75.33,83.79 -180.71,125.69 -316.14,125.69 -55.87,0 -123.58,-9.31 -203.14,-27.93l25.39 -347.88c22.01,6.77 46.55,10.16 73.64,10.16 98.19,0 166.75,-57.98 205.68,-173.94 38.93,-115.96 63.48,-297.52 73.64,-544.68l25.4 -721.16 1366.14 0zm1292.5 1807.98c-184.52,0 -350.84,-39.78 -498.97,-119.35 -148.12,-79.56 -264.08,-189.18 -347.88,-328.84 -83.79,-139.66 -125.69,-296.67 -125.69,-471.04 0,-174.37 41.9,-331.38 125.69,-471.04 83.8,-139.66 199.76,-249.27 347.88,-328.84 148.13,-79.57 314.45,-119.35 498.97,-119.35 184.52,0 350.42,39.78 497.7,119.35 147.28,79.56 263.24,189.18 347.88,328.84 84.65,139.66 126.96,296.67 126.96,471.04 0,174.37 -42.32,331.38 -126.96,471.04 -84.64,139.66 -200.6,249.27 -347.88,328.84 -147.28,79.57 -313.18,119.35 -497.7,119.35zm0 -350.43c104.96,0 199.75,-24.12 284.4,-72.37 84.65,-48.25 151.09,-115.54 199.34,-201.87 48.25,-86.34 72.37,-184.52 72.37,-294.56 0,-110.04 -24.12,-208.22 -72.37,-294.56 -48.25,-86.34 -114.69,-153.62 -199.34,-201.87 -84.64,-48.25 -179.44,-72.37 -284.4,-72.37 -104.96,0 -199.76,24.12 -284.4,72.37 -84.64,48.25 -151.09,115.54 -199.33,201.87 -48.25,86.34 -72.37,184.52 -72.37,294.56 0,110.04 24.12,208.22 72.37,294.56 48.24,86.34 114.69,153.62 199.33,201.87 84.64,48.25 179.44,72.37 284.4,72.37zm2541.83 -1122.36l-845.59 0 2.54 1442.32 -408.82 0 0 -1777.5 1254.41 0 -2.54 335.19zm253.93 -335.19l408.82 0 0 1157.91 848.12 -1157.91 385.97 0 0 1777.5 -406.29 0 0 -1155.38 -848.12 1155.38 -388.51 0 0 -1777.5zm2084.76 0l408.82 0 0 1157.91 848.12 -1157.91 385.97 0 0 1777.5 -406.29 0 0 -1155.38 -848.12 1155.38 -388.51 0 0 -1777.5z"/>
   <path class="fil0" d="M5465.66 7805.82c141.79,42.1 250.34,110.78 325.67,206.04 75.33,95.27 112.99,212.69 112.99,352.26 0,206.04 -78.09,366.66 -234.28,481.86 -156.19,115.2 -379.39,172.81 -669.62,172.81l-1146.49 0 0 -2326.23 1083.35 0c270.29,0 480.75,52.06 631.41,156.19 150.65,104.12 225.97,252.56 225.97,445.3 0,115.2 -28.8,216.56 -86.4,304.07 -57.6,87.51 -138.47,156.75 -242.6,207.7zm-1076.71 -149.54l501.8 0c117.42,0 206.04,-23.82 265.86,-71.45 59.82,-47.63 89.73,-117.97 89.73,-211.02 0,-90.83 -30.47,-160.63 -91.39,-209.37 -60.93,-48.74 -148.99,-73.11 -264.2,-73.11l-501.8 0 0 564.94zm591.53 963.72c252.56,0 378.84,-99.69 378.84,-299.08 0,-192.75 -126.29,-289.12 -378.84,-289.12l-591.53 0 0 588.2 591.53 0zm2356.13 -1927.44c206.04,0 384.94,34.34 536.7,103.02 151.75,68.67 268.62,166.15 350.6,292.44 81.97,126.28 122.96,275.82 122.96,448.63 0,170.59 -40.99,319.58 -122.96,446.97 -81.97,127.39 -198.84,224.87 -350.6,292.45 -151.76,67.57 -330.65,101.35 -536.7,101.35l-468.57 0 0 641.37 -538.35 0 0 -2326.23 1006.92 0zm-29.91 1246.19c161.73,0 284.69,-34.89 368.88,-104.68 84.19,-69.78 126.28,-168.93 126.28,-297.42 0,-130.71 -42.09,-230.96 -126.28,-300.75 -84.18,-69.79 -207.15,-104.68 -368.88,-104.68l-438.66 0 0 807.53 438.66 0zm2854.61 581.56l-1080.03 0 -206.04 498.48 -551.65 0 1036.83 -2326.23 531.71 0 1040.15 2326.23 -564.94 0 -206.04 -498.48zm-169.48 -408.75l-368.88 -890.61 -368.87 890.61 737.74 0zm2984.21 -1419l0 2326.23 -531.71 0 0 -837.44c-201.6,73.11 -388.81,109.67 -561.62,109.67 -312.38,0 -551.65,-74.77 -717.81,-224.32 -166.15,-149.54 -249.23,-364.99 -249.23,-646.36l0 -727.78 531.71 0 0 667.96c0,159.52 42.65,279.7 127.94,360.56 85.3,80.87 208.81,121.3 370.54,121.3 177.24,0 343.4,-34.34 498.48,-103.02l0 -1046.8 531.71 0zm2153.42 1827.75l-1080.03 0 -206.04 498.48 -551.65 0 1036.83 -2326.23 531.71 0 1040.15 2326.23 -564.94 0 -206.04 -498.48zm-169.48 -408.75l-368.88 -890.61 -368.87 890.61 737.74 0zm3366.38 907.23l-3.33 -1392.41 -684.57 1146.5 -239.27 0 -684.58 -1119.91 0 1365.83 -505.12 0 0 -2326.23 445.3 0 870.67 1445.59 857.38 -1445.59 445.31 0 3.32 2326.23 -505.12 0z"/>
  </g>
 </g>
</svg>
