<?xml version="1.0" encoding="UTF-8"?>
<!DOCTYPE svg PUBLIC "-//W3C//DTD SVG 1.1//EN" "http://www.w3.org/Graphics/SVG/1.1/DTD/svg11.dtd">
<!-- Creator: CorelDRAW 2021 (64-Bit) -->
<svg xmlns="http://www.w3.org/2000/svg" xml:space="preserve" width="280mm" height="137.612mm" version="1.1" style="shape-rendering:geometricPrecision; text-rendering:geometricPrecision; image-rendering:optimizeQuality; fill-rule:evenodd; clip-rule:evenodd"
viewBox="0 0 27448.64 13490.22"
 xmlns:xlink="http://www.w3.org/1999/xlink"
 xmlns:xodm="http://www.corel.com/coreldraw/odm/2003">
 <defs>
  <style type="text/css">
   <![CDATA[
    .fil0 {fill:#FEFEFE;fill-rule:nonzero}
    .fil2 {fill:#E42D24;fill-rule:nonzero}
    .fil1 {fill:#E31E24;fill-rule:nonzero}
   ]]>
  </style>
 </defs>
 <g id="Слой_x0020_1">
  <metadata id="CorelCorpID_0Corel-Layer"/>
  <g id="_2022381672944">
   <polygon class="fil0" points="-0,11621.74 3920.03,11621.74 3920.03,12227.22 -0,12227.22 "/>
   <path class="fil1" d="M1752.58 3347.83c-329.84,0 -628.1,-71.67 -894.76,-215.02 -266.65,-143.34 -476.28,-342.18 -628.88,-596.5 -152.59,-254.33 -228.89,-541.8 -228.89,-862.4 0,-320.6 76.3,-608.07 228.89,-862.39 152.59,-254.33 362.22,-453.17 628.88,-596.51 266.65,-143.35 566.45,-215.02 899.38,-215.02 280.52,0 534.08,49.32 760.66,147.97 226.58,98.65 416.94,240.45 571.08,425.41l-480.91 443.91c-218.87,-252.78 -490.15,-379.17 -813.83,-379.17 -200.38,0 -379.18,43.93 -536.4,131.78 -157.22,87.87 -279.76,210.39 -367.62,367.62 -87.86,157.22 -131.79,336.02 -131.79,536.4 0,200.37 43.94,379.17 131.79,536.4 87.86,157.22 210.39,279.76 367.62,367.62 157.21,87.86 336.01,131.78 536.4,131.78 323.68,0 594.96,-127.93 813.83,-383.8l480.91 443.91c-154.13,188.05 -345.26,331.39 -573.39,430.04 -228.12,98.65 -482.44,147.97 -762.97,147.97zm1826.52 -3292.35l744.48 0 0 2108.58 1544.45 -2108.58 702.86 0 0 3236.86 -739.86 0 0 -2103.96 -1544.45 2103.96 -707.48 0 0 -3236.86zm6381.23 0l0 3236.86 -739.85 0 0 -860.08 -684.36 0 -573.39 860.08 -790.72 0 675.12 -975.68c-218.87,-89.4 -386.89,-224.27 -504.03,-404.61 -117.15,-180.34 -175.72,-396.9 -175.72,-649.68 0,-249.7 57.03,-464.72 171.09,-645.06 114.06,-180.34 275.91,-319.06 485.53,-416.16 209.63,-97.11 456.25,-145.66 739.86,-145.66l1396.47 0zm-1377.97 610.38c-212.72,0 -375.33,49.33 -487.84,147.97 -112.52,98.65 -168.78,245.08 -168.78,439.3 0,188.04 53.95,332.93 161.84,434.66 107.89,101.73 266.65,152.59 476.28,152.59l656.62 0 0 -1174.52 -638.12 0zm5044.87 -665.86c323.69,0 615.78,72.44 876.27,217.32 260.49,144.89 464.72,344.5 612.69,598.82 147.97,254.33 221.95,540.25 221.95,857.77 0,317.52 -73.98,603.45 -221.95,857.77 -147.97,254.32 -352.21,453.93 -612.69,598.82 -260.49,144.88 -552.58,217.32 -876.27,217.32 -289.77,0 -554.88,-57.8 -795.33,-173.4 -240.46,-115.61 -438.52,-277.45 -594.2,-485.53 -155.67,-208.09 -255.1,-446.23 -298.25,-714.43l-425.41 0 0 1317.87 -744.48 0 0 -3236.86 744.48 0 0 1271.63 434.66 0c49.33,-258.95 151.83,-489.38 307.5,-691.3 155.68,-201.91 352.21,-358.36 589.58,-469.34 237.36,-110.98 497.86,-166.47 781.46,-166.47zm0 2709.71c178.8,0 340.65,-43.15 485.54,-129.47 144.88,-86.32 258.95,-208.09 342.18,-365.3 83.24,-157.22 124.85,-337.56 124.85,-541.02 0,-203.46 -41.61,-383.8 -124.85,-541.02 -83.23,-157.21 -197.3,-278.99 -342.18,-365.3 -144.89,-86.32 -306.74,-129.47 -485.54,-129.47 -178.8,0 -340.64,43.15 -485.53,129.47 -144.89,86.32 -258.95,208.09 -342.18,365.3 -83.24,157.22 -124.85,337.56 -124.85,541.02 0,203.46 41.61,383.8 124.85,541.02 83.23,157.21 197.29,278.99 342.18,365.3 144.89,86.32 306.73,129.47 485.53,129.47zm6566.2 -2654.22l0 3236.86 -4272.65 0 0 -3236.86 744.48 0 0 2626.48 1021.92 0 0 -2626.48 744.48 0 0 2626.48 1017.3 0 0 -2626.48 744.49 0zm439.29 2626.48l0 1280.87 -693.62 0 0 -670.49 -504.03 0 0 -610.38 1197.64 0zm513.28 -2626.48l744.48 0 0 2108.58 1544.45 -2108.58 702.86 0 0 3236.86 -739.86 0 0 -2103.96 -1544.45 2103.96 -707.48 0 0 -3236.86zm6302.62 2635.72l0 601.13 -2506.25 0 0 -3236.86 2446.13 0 0 601.13 -1701.66 0 0 702.86 1502.82 0 0 582.63 -1502.82 0 0 749.1 1761.77 0z"/>
   <path class="fil2" d="M4145.65 5110.4l-1739.99 3234.74c-167.39,311.4 -368.82,546.9 -604.33,706.51 -235.5,159.59 -491.44,239.39 -767.81,239.39 -214.1,0 -435.97,-46.71 -665.64,-140.14l227.72 -718.18c163.5,50.6 299.73,75.91 408.73,75.91 116.77,0 221.87,-28.22 315.3,-84.66 93.42,-56.45 179.06,-145 256.91,-265.67l35.04 -46.71 -1611.53 -3001.18 1010.12 0 1086.03 2195.42 1121.07 -2195.42 928.38 0zm4028.83 0l0 4087.22 -934.22 0 0 -3316.48 -1401.33 0 -29.19 852.48c-19.47,579.99 -66.18,1050.02 -140.14,1410.08 -73.95,360.07 -197.55,636.44 -370.77,829.12 -173.22,192.68 -415.53,289.02 -726.94,289.02 -128.46,0 -284.16,-21.41 -467.11,-64.23l58.39 -799.93c50.6,15.58 107.04,23.36 169.33,23.36 225.76,0 383.42,-133.32 472.95,-399.97 89.52,-266.64 145.97,-684.12 169.33,-1252.44l58.39 -1658.24 3141.32 0zm3001.18 1342.94c498.25,0 880.7,110.94 1147.34,332.81 266.63,221.88 399.96,550.81 399.96,986.77 0,463.22 -146.94,816.48 -440.83,1059.76 -293.89,243.28 -707.48,364.93 -1240.76,364.93l-1845.09 0 0 -4087.22 940.06 0 0 1342.94 1039.32 0zm-186.85 2043.61c245.23,0 436.94,-60.34 575.13,-181 138.19,-120.68 207.29,-295.84 207.29,-525.5 0,-424.29 -260.8,-636.44 -782.41,-636.44l-852.48 0 0 1342.94 852.48 0zm2253.81 -3386.55l940.07 0 0 4087.22 -940.07 0 0 -4087.22zm1956.03 0l3298.96 0 0 753.22 -2358.91 0 0 840.8 1132.75 0c494.36,0 870.96,103.15 1129.82,309.45 258.85,206.31 388.28,504.09 388.28,893.35 0,408.72 -144.03,725.97 -432.08,951.73 -288.04,225.77 -694.82,338.66 -1220.32,338.66l-1938.51 0 0 -4087.22zm1885.96 3386.55c241.34,0 426.24,-47.68 554.7,-143.06 128.45,-95.36 192.68,-234.53 192.68,-417.47 0,-358.12 -249.13,-537.18 -747.38,-537.18l-945.9 0 0 1097.71 945.9 0zm4005.47 -945.9l-653.95 0 0 1646.56 -940.07 0 0 -4087.22 940.07 0 0 1652.41 677.3 0 1074.36 -1652.41 998.44 0 -1337.1 1973.55 1377.98 2113.67 -1074.36 0 -1062.67 -1646.56zm2580.79 -2440.65l940.06 0 0 2662.53 1950.19 -2662.53 887.51 0 0 4087.22 -934.22 0 0 -2656.69 -1950.19 2656.69 -893.34 0 0 -4087.22z"/>
   <path class="fil0" d="M7105.61 10758.49l0 2254.96 -518.65 0 0 -1829.75 -1017.95 0 0 1829.75 -518.64 0 0 -2254.96 2055.25 0zm2087.46 1771.76l-1046.95 0 -199.73 483.2 -534.75 0 1005.07 -2254.96 515.42 0 1008.3 2254.96 -547.64 0 -199.72 -483.2zm-164.29 -396.23l-357.58 -863.33 -357.58 863.33 715.15 0zm3575.73 454.22l0 901.98 -479.99 0 0 -476.76 -1884.51 0 0 -2254.96 518.64 0 0 1829.75 1005.07 0 0 -1829.75 518.64 0 0 1829.75 322.14 0zm344.69 -1829.75l518.64 0 0 1468.94 1075.94 -1468.94 489.65 0 0 2254.96 -515.42 0 0 -1465.73 -1075.95 1465.73 -492.87 0 0 -2254.96zm4390.74 1836.19l0 418.78 -1745.99 0 0 -2254.96 1704.11 0 0 418.78 -1185.47 0 0 489.64 1046.95 0 0 405.9 -1046.95 0 0 521.87 1227.35 0zm2490.13 -1836.19l0 2254.96 -521.87 0 0 -924.54 -1024.39 0 0 924.54 -521.87 0 0 -2254.96 521.87 0 0 889.1 1024.39 0 0 -889.1 521.87 0zm2287.19 425.22l-721.59 0 0 1829.75 -515.42 0 0 -1829.75 -718.37 0 0 -425.22 1955.38 0 0 425.22zm1742.77 1346.54l-1046.95 0 -199.73 483.2 -534.75 0 1005.07 -2254.96 515.42 0 1008.3 2254.96 -547.64 0 -199.72 -483.2zm-164.29 -396.23l-357.58 -863.33 -357.58 863.33 715.15 0zm3263.26 879.43l-3.23 -1349.76 -663.6 1111.38 -231.94 0 -663.6 -1085.6 0 1323.98 -489.65 0 0 -2254.96 431.67 0 844 1401.3 831.11 -1401.3 431.67 0 3.22 2254.96 -489.64 0z"/>
  </g>
 </g>
</svg>
