<?xml version="1.0" encoding="UTF-8"?>
<!DOCTYPE svg PUBLIC "-//W3C//DTD SVG 1.1//EN" "http://www.w3.org/Graphics/SVG/1.1/DTD/svg11.dtd">
<!-- Creator: CorelDRAW 2021 (64-Bit) -->
<svg xmlns="http://www.w3.org/2000/svg" xml:space="preserve" width="280mm" height="97.6905mm" version="1.1" style="shape-rendering:geometricPrecision; text-rendering:geometricPrecision; image-rendering:optimizeQuality; fill-rule:evenodd; clip-rule:evenodd"
viewBox="0 0 23972.1 8363.74"
 xmlns:xlink="http://www.w3.org/1999/xlink"
 xmlns:xodm="http://www.corel.com/coreldraw/odm/2003">
 <defs>
  <style type="text/css">
   <![CDATA[
    .fil0 {fill:#FEFEFE;fill-rule:nonzero}
    .fil1 {fill:#E42D24;fill-rule:nonzero}
   ]]>
  </style>
 </defs>
 <g id="Слой_x0020_1">
  <metadata id="CorelCorpID_0Corel-Layer"/>
  <g id="_2022381700208">
   <polygon class="fil0" points="-0,5696.05 3423.53,5696.05 3423.53,6224.84 -0,6224.84 "/>
   <path class="fil1" d="M1852.37 1406.34c163.4,56.26 291.31,143.99 383.73,263.19 92.41,119.2 138.62,257.83 138.62,415.87 0,171.44 -56.25,320.11 -168.76,446.01 -112.51,125.9 -264.53,222.34 -456.06,289.31 -191.53,66.97 -401.14,100.45 -628.83,100.45 -192.87,0 -385.07,-24.11 -576.61,-72.33 -191.53,-48.22 -373.01,-121.88 -544.45,-221l200.9 -466.1c123.23,75.01 259.17,131.93 407.84,170.78 148.67,38.83 293.99,58.26 435.97,58.26 192.86,0 352.92,-34.83 480.16,-104.48 127.24,-69.65 190.86,-167.42 190.86,-293.32 0,-104.48 -43.53,-183.5 -130.59,-237.08 -87.06,-53.57 -205.6,-80.36 -355.6,-80.36l-687.1 0 0 -490.21 638.88 0c131.26,0 233.72,-26.79 307.38,-80.36 73.66,-53.58 110.5,-127.24 110.5,-221 0,-109.84 -52.91,-195.55 -158.72,-257.16 -105.81,-61.62 -241.76,-92.42 -407.83,-92.42 -123.23,0 -250.47,16.75 -381.72,50.23 -131.26,33.48 -255.83,83.71 -373.69,150.68l-196.89 -506.28c297.34,-152.69 618.8,-229.04 964.35,-229.04 219.65,0 421.9,32.15 606.73,96.44 184.83,64.29 332.16,158.04 441.99,281.27 109.83,123.22 164.74,266.54 164.74,429.93 0,133.94 -36.16,253.15 -108.49,357.61 -72.33,104.48 -171.43,184.83 -297.34,241.09zm3937.76 936.22l0 1113.02 -602.72 0 0 -582.62 -1984.95 0 0 582.62 -602.72 0 4.02 -1113.02 112.51 0c168.76,-5.36 287.96,-128.58 357.61,-369.67 69.65,-241.09 112.51,-585.3 128.58,-1032.66l32.14 -879.96 2161.75 0 0 2282.29 393.78 0zm-2013.08 -1342.05c-13.39,334.85 -41.51,615.44 -84.37,841.8 -42.87,226.36 -108.49,393.11 -196.89,500.26l1257.67 0 0 -1751.9 -964.35 0 -12.05 409.85zm3793.11 1920.66c-291.98,0 -555.17,-62.95 -789.56,-188.85 -234.4,-125.9 -417.89,-299.35 -550.49,-520.35 -132.6,-221 -198.9,-469.45 -198.9,-745.36 0,-275.91 66.3,-524.36 198.9,-745.36 132.6,-221 316.09,-394.44 550.49,-520.35 234.39,-125.9 497.58,-188.85 789.56,-188.85 291.99,0 554.5,62.95 787.55,188.85 233.05,125.9 416.55,299.35 550.49,520.35 133.94,221 200.9,469.45 200.9,745.36 0,275.91 -66.97,524.36 -200.9,745.36 -133.94,221 -317.43,394.44 -550.49,520.35 -233.05,125.9 -495.56,188.85 -787.55,188.85zm0 -554.5c166.08,0 316.1,-38.18 450.03,-114.52 133.94,-76.34 239.08,-182.82 315.42,-319.44 76.34,-136.62 114.52,-291.99 114.52,-466.1 0,-174.12 -38.18,-329.49 -114.52,-466.1 -76.34,-136.62 -181.49,-243.09 -315.42,-319.44 -133.94,-76.35 -283.95,-114.52 -450.03,-114.52 -166.08,0 -316.09,38.17 -450.02,114.52 -133.94,76.34 -239.08,182.82 -315.42,319.44 -76.35,136.62 -114.52,291.98 -114.52,466.1 0,174.11 38.17,329.49 114.52,466.1 76.34,136.62 181.49,243.09 315.42,319.44 133.94,76.34 283.94,114.52 450.02,114.52zm3258.69 -2306.4c249.12,0 465.44,41.52 648.92,124.56 183.5,83.04 324.8,200.9 423.91,353.6 99.12,152.69 148.67,333.5 148.67,542.45 0,206.26 -49.55,386.4 -148.67,540.43 -99.12,154.03 -240.41,271.9 -423.91,353.6 -183.49,81.7 -399.8,122.55 -648.92,122.55l-566.56 0 0 775.5 -650.94 0 0 -2812.68 1217.49 0zm-36.16 1506.79c195.55,0 344.22,-42.19 446.01,-126.57 101.8,-84.38 152.69,-204.25 152.69,-359.62 0,-158.05 -50.9,-279.27 -152.69,-363.64 -101.79,-84.38 -250.46,-126.57 -446.01,-126.57l-530.39 0 0 976.4 530.39 0zm3069.84 1354.11c-291.98,0 -555.17,-62.95 -789.56,-188.85 -234.4,-125.9 -417.89,-299.35 -550.49,-520.35 -132.6,-221 -198.9,-469.45 -198.9,-745.36 0,-275.91 66.3,-524.36 198.9,-745.36 132.6,-221 316.09,-394.44 550.49,-520.35 234.39,-125.9 497.58,-188.85 789.56,-188.85 291.99,0 554.5,62.95 787.55,188.85 233.05,125.9 416.55,299.35 550.49,520.35 133.94,221 200.9,469.45 200.9,745.36 0,275.91 -66.97,524.36 -200.9,745.36 -133.94,221 -317.43,394.44 -550.49,520.35 -233.05,125.9 -495.56,188.85 -787.55,188.85zm0 -554.5c166.08,0 316.1,-38.18 450.03,-114.52 133.94,-76.34 239.08,-182.82 315.42,-319.44 76.34,-136.62 114.52,-291.99 114.52,-466.1 0,-174.12 -38.18,-329.49 -114.52,-466.1 -76.34,-136.62 -181.49,-243.09 -315.42,-319.44 -133.94,-76.35 -283.95,-114.52 -450.03,-114.52 -166.08,0 -316.09,38.17 -450.02,114.52 -133.94,76.34 -239.08,182.82 -315.42,319.44 -76.35,136.62 -114.52,291.98 -114.52,466.1 0,174.11 38.17,329.49 114.52,466.1 76.34,136.62 181.49,243.09 315.42,319.44 133.94,76.34 283.94,114.52 450.02,114.52zm3989.99 -960.33c171.44,50.9 302.7,133.94 393.78,249.12 91.08,115.19 136.62,257.16 136.62,425.92 0,249.12 -94.42,443.33 -283.27,582.62 -188.85,139.3 -458.73,208.94 -809.65,208.94l-1386.26 0 0 -2812.68 1309.91 0c326.8,0 581.28,62.95 763.44,188.85 182.15,125.9 273.23,305.38 273.23,538.43 0,139.3 -34.83,261.84 -104.48,367.66 -69.65,105.81 -167.42,189.53 -293.32,251.13zm-1301.87 -180.82l606.73 0c141.97,0 249.12,-28.79 321.45,-86.39 72.33,-57.59 108.49,-142.64 108.49,-255.15 0,-109.84 -36.83,-194.21 -110.5,-253.15 -73.66,-58.93 -180.14,-88.4 -319.44,-88.4l-606.73 0 0 683.08zm715.22 1165.26c305.38,0 458.06,-120.55 458.06,-361.63 0,-233.05 -152.69,-349.58 -458.06,-349.58l-715.22 0 0 711.21 715.22 0zm2993.5 -1406.34c342.88,0 606.07,76.34 789.56,229.03 183.5,152.69 275.24,379.04 275.24,679.06 0,318.78 -101.12,561.87 -303.37,729.29 -202.25,167.42 -486.86,251.13 -853.85,251.13l-1269.73 0 0 -2812.68 646.92 0 0 924.17 715.22 0zm-128.58 1406.34c168.76,0 300.7,-41.52 395.79,-124.56 95.09,-83.05 142.64,-203.58 142.64,-361.64 0,-291.98 -179.47,-437.97 -538.43,-437.97l-586.64 0 0 924.17 586.64 0zm3841.32 -40.18l0 522.35 -2177.82 0 0 -2812.68 2125.59 0 0 522.35 -1478.67 0 0 610.76 1305.89 0 0 506.28 -1305.89 0 0 650.94 1530.9 0z"/>
   <path class="fil0" d="M8238.39 4299.72l0 3354.73 -776.39 0 0 -1375.44 -1524.01 0 0 1375.44 -776.38 0 0 -3354.73 776.38 0 0 1322.72 1524.01 0 0 -1322.72 776.39 0zm3110.32 2635.86l-1557.56 0 -297.13 718.87 -795.56 0 1495.25 -3354.73 766.8 0 1500.05 3354.73 -814.72 0 -297.13 -718.87zm-244.42 -589.47l-531.97 -1284.38 -531.96 1284.38 1063.92 0zm5319.66 675.74l0 1341.89 -714.09 0 0 -709.28 -2803.6 0 0 -3354.73 771.59 0 0 2722.13 1495.25 0 0 -2722.13 771.58 0 0 2722.13 479.25 0zm512.79 -2722.13l771.59 0 0 2185.37 1600.69 -2185.37 728.45 0 0 3354.73 -766.79 0 0 -2180.58 -1600.69 2180.58 -733.26 0 0 -3354.73zm3934.63 0l771.59 0 0 2185.37 1600.69 -2185.37 728.45 0 0 3354.73 -766.79 0 0 -2180.58 -1600.69 2180.58 -733.26 0 0 -3354.73z"/>
  </g>
 </g>
</svg>
