<?xml version="1.0" encoding="UTF-8"?>
<!DOCTYPE svg PUBLIC "-//W3C//DTD SVG 1.1//EN" "http://www.w3.org/Graphics/SVG/1.1/DTD/svg11.dtd">
<!-- Creator: CorelDRAW 2021 (64-Bit) -->
<svg xmlns="http://www.w3.org/2000/svg" xml:space="preserve" width="100mm" height="36.0988mm" version="1.1" style="shape-rendering:geometricPrecision; text-rendering:geometricPrecision; image-rendering:optimizeQuality; fill-rule:evenodd; clip-rule:evenodd"
viewBox="0 0 21677.21 7825.21"
 xmlns:xlink="http://www.w3.org/1999/xlink"
 xmlns:xodm="http://www.corel.com/coreldraw/odm/2003">
 <defs>
  <style type="text/css">
   <![CDATA[
    .fil0 {fill:#FEFEFE}
    .fil1 {fill:#E42D24}
   ]]>
  </style>
 </defs>
 <g id="Слой_x0020_1">
  <metadata id="CorelCorpID_0Corel-Layer"/>
  <g id="_2022386357920">
   <path class="fil0" d="M-0 4244.96l759.11 0 0 -1913.06 1416.39 1913.06 957.74 0 -1091.49 -1474.29c560.29,-193.97 962.42,-723.41 962.42,-1345.92 0,-778.99 -630.05,-1411.92 -1411.55,-1424.39l0 -0.37 -833.51 0 -597.58 0 -161.54 0 0 4244.96zm759.11 -2138.28l0 -1360.09 833.51 0 0 -0.33c366.82,12.25 660.55,311.39 660.55,678.5 0,370.49 -298.97,671.67 -670.32,678.91l-823.73 3.01z"/>
   <path class="fil0" d="M16382.79 4027.34l274.54 0 0 -4027.19 -274.54 0 0 1788.96c-264.44,-383.32 -706.63,-634.75 -1207.42,-634.75 -809.45,0 -1465.86,656.41 -1465.86,1465.86 0,809.45 656.41,1465.86 1465.86,1465.86 500.79,0 942.98,-251.24 1207.42,-634.56l0 575.83zm-1207.42 -2589.91c652.92,0 1182.77,529.86 1182.77,1182.77 0,652.92 -529.86,1182.77 -1182.77,1182.77 -652.92,0 -1182.77,-529.86 -1182.77,-1182.77 0,-652.92 529.86,-1182.77 1182.77,-1182.77z"/>
   <path class="fil0" d="M11538.58 1165.89c488.34,0 920.76,238.84 1187.17,606.14l0 -557.73 363.4 0 0 2865.06 -363.4 0 0 -588.12c-266.41,367.3 -698.83,606.4 -1187.17,606.4 -809.43,0 -1465.83,-656.41 -1465.83,-1465.86 0,-809.45 656.41,-1465.88 1465.83,-1465.88zm0 343.8c48.08,0 95.36,2.95 141.81,8.87 582.51,52.52 1038.92,531.03 1038.92,1113.21 0,582.75 -457.39,1061.53 -1040.74,1113.21 -45.87,5.68 -92.54,8.87 -139.99,8.87 -619.66,0 -1122.06,-502.41 -1122.06,-1122.08 0,-619.69 502.39,-1122.08 1122.06,-1122.08z"/>
   <path class="fil0" d="M9130.59 2063.35c-194.9,-305.35 -541.84,-508.59 -937.43,-508.59 -609.13,0 -1103.63,482.3 -1103.63,1076.99 0,594.74 494.5,1076.97 1103.63,1076.97 402.26,0 754.41,-210.46 947.23,-524.57l525.67 0c-227.57,577.09 -800.8,986.9 -1472.03,986.9 -870.8,0 -1577.02,-689.29 -1577.02,-1539.34 0,-850.01 706.22,-1539.3 1577.02,-1539.3 665.14,0 1234.15,402.09 1465.86,970.94l-529.29 0z"/>
   <path class="fil0" d="M4705.56 1043.15c877.19,0 1588.59,711.42 1588.59,1588.55 0,877.19 -711.4,1588.59 -1588.59,1588.59 -877.12,0 -1588.53,-711.4 -1588.53,-1588.59 0,-877.12 711.4,-1588.55 1588.53,-1588.55zm0 587.28c552.96,0 1001.34,448.44 1001.34,1001.27 0,552.96 -448.37,1001.34 -1001.34,1001.34 -552.83,0 -1001.25,-448.37 -1001.25,-1001.34 0,-552.83 448.41,-1001.27 1001.25,-1001.27z"/>
   <path class="fil0" d="M20049.71 1282.94l169.62 0 0 2670.83 -169.62 0 0 -731.24c-223.8,485.31 -714.59,822.5 -1284.03,822.5 -780.38,0 -1413.27,-632.89 -1413.27,-1413.27 0,-780.4 632.89,-1413.29 1413.27,-1413.29 569.44,0 1060.23,336.91 1284.03,822.24l0 -757.77zm-1284.03 113.24c682.18,0 1235.58,553.38 1235.58,1235.58 0,682.18 -553.4,1235.58 -1235.58,1235.58 -682.18,0 -1235.58,-553.4 -1235.58,-1235.58 0,-682.2 553.4,-1235.58 1235.58,-1235.58z"/>
   <path class="fil1" d="M1699.28 7721.68l-1698.19 0 0 -1482.4c461.4,595.04 1038.34,1099.68 1698.19,1482.4zm-1439.15 -2905.18l578.89 0c66.33,115.76 138.08,228.26 214.6,337.3 0.11,0.11 0.33,0.33 0.43,0.54l0 0.33 0 -0.33c797.4,1134.37 2133.8,1878.33 3647.84,1878.33 1659.93,0 3106.45,-893.97 3863.31,-2216.17l578.67 0c-800.76,1608.88 -2488.87,2718 -4441.99,2718 -1445.11,0 -2744.98,-607.29 -3647.84,-1574.96l0 -4.12 0 4.12c-317.35,-340.01 -585.72,-724.67 -793.93,-1143.04zm870.99 0l440.91 0c694.86,977.21 1838.88,1615.39 3132.25,1615.39 1293.37,0 2437.39,-638.18 3132.36,-1615.39l440.91 0c-741.69,1189.32 -2064.54,1981.73 -3573.27,1981.73 -1508.63,0 -2831.48,-792.41 -3573.16,-1981.73zm9080.04 0l613.68 0 0 1112.04 -56.14 92.56c-362.33,636.88 -826.55,1210.67 -1371.19,1700.58l-1692.34 0c1137.51,-659.64 2028.66,-1682.58 2505.99,-2905.18zm-8099.91 0l330.69 0c563.61,592.33 1367.51,963.01 2259.96,963.01 892.56,0 1696.78,-370.68 2260.28,-963.01l330.79 0c-611.62,736.48 -1545.26,1207.2 -2591.08,1207.2 -1045.71,0 -1979.02,-470.72 -2590.64,-1207.2zm1228.77 0l470.4 0c282.24,119.87 592.55,186.21 918.35,186.21 325.92,0 636.33,-66.33 918.57,-186.21l416.96 0c-366.67,214.39 -907.84,392.68 -1366.1,392.68 -458.26,0 -991.41,-178.3 -1358.19,-392.68zm4149.02 2905.18l-2470.33 0c1921.58,-115.54 3554.95,-1274.84 4313.11,-2905.18l764.34 0c-495,1240.8 -1425.06,2268.95 -2607.12,2905.18zm3335.8 0l-1327.84 0c497.93,-457.06 927.35,-984.36 1271.69,-1565.74l56.14 -101.45 0 1667.19zm-6439.43 0l-2470.12 0c-757.62,-407.75 -1411.73,-976.56 -1914.21,-1659.28l0 -1245.9 71.32 0c243.33,523.4 577.37,998.24 981.65,1405.55 855.27,861.56 2026.71,1421.16 3331.35,1499.63z"/>
   <path class="fil1" d="M12721.49 4752.34c317.4,0 598.72,153.76 773.81,390.91 0.43,-0.28 1.04,-0.52 1.28,-0.82 184.84,-236.06 472.32,-387.76 795.32,-387.76 445.62,0 842.9,292.84 952.71,721.05 61.82,241.2 51.29,499.12 54.08,752.96l-1.89 1486.3 -709.19 0c-0.02,-524.72 1.63,-1049.68 2.12,-1574.37 0.26,-317.96 -11.77,-727.9 -453.47,-727.9 -143.98,0 -278.4,62.67 -355.46,171.92 -111.05,157.4 -94.14,358.06 -100.63,552.36l1.97 1579.31 -702.34 1c-1.89,-580.08 -4.4,-1160.29 -4.7,-1740.38 -0.13,-292.45 -120.27,-574.73 -458.84,-574.73 -352.38,0 -458.73,284.82 -458.73,574.68 -0.09,579.89 -0.72,1161.51 -1.21,1741.76l-702.62 1.02 0 -2886.8 702.19 0 0 187.25c172.75,-165.87 407.25,-267.76 665.6,-267.76z"/>
   <path class="fil1" d="M20965.72 43.96l711.49 0 0 7677.85 -711.49 0 0 -243.3c-238.73,212.65 -542.34,340.09 -872.83,340.09 -768.37,0 -1391.55,-688.14 -1391.55,-1536.68 0,-848.53 623.18,-1536.68 1391.55,-1536.68 330.49,0 634.1,127.35 872.83,340.01l0 -5041.3zm0 6538.67c51.74,-210.92 39.02,-424.5 0,-592.29 -110.45,-344.69 -408.16,-591.66 -758.1,-591.66 -443.95,0 -803.99,397.58 -803.99,887.86 0,490.25 360.04,887.86 803.99,887.86 349.94,0 647.65,-247.06 758.1,-591.77z"/>
   <path class="fil1" d="M18414.66 6054.21c8.8,80.6 12.94,164.03 12.05,250.02 0,57.88 -3.45,114.91 -9.93,171.08l-476.2 0 -396.06 0 -1266.51 0c51.68,417.35 369.68,706.48 802.01,706.48 204.09,0 434.97,-100.37 572.1,-258.39l145.8 0 0.11 -0.13 398.17 0 -0.2 0.13 214.13 0c-147.6,395.74 -477.7,706.81 -891.71,837.63 -461.05,145.67 -1013.8,36.42 -1390.64,-257.27 -328,-249.87 -556.19,-650.49 -556.19,-1199.53 0,-500.24 162.47,-877.41 430.7,-1129.49 254.4,-269.17 617.32,-437.58 1020.28,-437.58 751.03,0 1363.28,584.98 1392.09,1317.04zm-1540.08 -655.97l-0.24 0.04c-208.49,41.99 -393.74,175.87 -497.34,361.19l-2.8 5.07c-10.71,19.51 -20.59,39.6 -29.48,60.18l-0.41 1.02c-11.01,25.62 -20.55,51.96 -28.57,79.04l10.84 0 -0.04 0.22 1368.2 0 -0.02 -0.22 34.64 0c-36.22,-122.06 -104.25,-230.86 -194.6,-317.07l-0.93 -0.89c-174.83,-166.35 -424.27,-233.51 -659.25,-188.57z"/>
  </g>
 </g>
</svg>
