<?xml version="1.0" encoding="UTF-8"?>
<!DOCTYPE svg PUBLIC "-//W3C//DTD SVG 1.1//EN" "http://www.w3.org/Graphics/SVG/1.1/DTD/svg11.dtd">
<!-- Creator: CorelDRAW 2021 (64-Bit) -->
<svg xmlns="http://www.w3.org/2000/svg" xml:space="preserve" width="60.0001mm" height="22.6842mm" version="1.1" style="shape-rendering:geometricPrecision; text-rendering:geometricPrecision; image-rendering:optimizeQuality; fill-rule:evenodd; clip-rule:evenodd"
viewBox="0 0 20824.48 7873.1"
 xmlns:xlink="http://www.w3.org/1999/xlink"
 xmlns:xodm="http://www.corel.com/coreldraw/odm/2003">
 <defs>
  <style type="text/css">
   <![CDATA[
    .fil0 {fill:#FEFEFE}
    .fil1 {fill:#AC97C7}
   ]]>
  </style>
 </defs>
 <g id="Слой_x0020_1">
  <metadata id="CorelCorpID_0Corel-Layer"/>
  <g id="_1987058254144">
   <path class="fil0" d="M18829.29 4217.06c-321.08,0 -565.14,-249.79 -565.14,-565.84 0,-316.22 244.06,-565.59 565.14,-565.59 327.99,0 571.8,249.37 571.8,565.59 0,316.05 -243.82,565.84 -571.8,565.84zm-12418.31 0c-319.48,0 -563.82,-249.79 -563.82,-565.84 0,-316.22 244.34,-565.59 563.82,-565.59 327.92,0 572.85,249.37 572.85,565.59 0,316.05 -244.93,565.84 -572.85,565.84zm-4426.69 0c-319.59,0 -563.82,-249.79 -563.82,-565.42 0,-316.64 244.24,-566.01 563.82,-566.01 327.81,0 573.02,249.37 573.02,566.01 0,315.63 -245.21,565.42 -573.02,565.42zm16845 1403.85c1114.32,0 1992.24,-875.49 1992.24,-1969.68 0,-1101.37 -877.92,-1953.89 -1992.24,-1953.89 -1107.76,0 -1985.51,852.52 -1985.51,1953.89 0,1094.19 877.75,1969.68 1985.51,1969.68zm-14349.19 1689.83l931.41 0c351.2,0 565.31,-157.92 565.31,-595.65l0 -1169.95c137.2,37.31 266.97,52.72 434.78,52.72 1099.7,0 1992.48,-866.96 1992.48,-1946.63 0,-1146.39 -908.33,-1893.22 -2061.17,-1893.22l-1947.16 0c77.43,120.19 84.34,271.03 84.34,557.71l0 4995.02zm12113.13 -1750.3c-76.46,-120.71 -84.34,-309.31 -84.34,-557.82l0 -5002.62 -1526.71 0 0 4964.44c0,437.63 213.59,596 564.72,596l1046.32 0zm-3083.23 0l1046.05 0c-76.29,-120.71 -83.71,-309.31 -83.71,-557.82l0 -5002.62 -1527.58 0 0 4964.44c0,437.63 213.59,596 565.24,596zm-9601.11 -3802.44l-1847.93 0c-1152.53,0 -2060.96,746.83 -2060.96,1893.22 0,1124.52 915.86,1909.22 2046.42,1909.22l1946.39 0c-76.15,-120.71 -83.92,-309.31 -83.92,-557.82l0 -3244.62zm6707.8 2459.06c-319.86,0 -563.79,-249.79 -563.79,-565.84 0,-316.22 243.92,-565.59 563.79,-565.59 328.82,0 572.98,249.37 572.98,565.59 0,316.05 -244.17,565.84 -572.98,565.84zm0.24 1403.85c1115.36,0 1992.93,-875.49 1992.93,-1969.68 0,-1101.37 -877.58,-1953.89 -1992.93,-1953.89 -1106.3,0 -1984.71,852.52 -1984.71,1953.89 0,1094.19 878.41,1969.68 1984.71,1969.68z"/>
   <path class="fil1" d="M20819.45 6177.33l-23.39 0 -1074.92 0c-247.88,0.69 -468.03,125.36 -605.16,311.39 -21.76,28.77 -41.65,59.8 -59.45,93.5 -5.1,9.23 -9.41,18.81 -13.92,28.25 -0.24,0.59 -0.59,1.28 -0.94,2.15 -1.46,2.74 -2.5,5.28 -3.96,8.12 -3.75,8.54 -7.64,17.18 -11.25,25.82 -0.62,1.8 -1.39,3.37 -1.74,4.86 -4.3,10.52 -8.47,20.96 -12.08,31.62 -0.35,1.53 -1.21,3.02 -1.67,4.48 -2.92,9.41 -6.39,18.85 -9.23,28.25 -0.28,1.39 -0.52,3.12 -1.04,4.34 -6.66,21.83 -12.01,43.45 -15.9,64.52 -0.17,1.04 -0.42,1.84 -0.52,2.5 -4.3,21.97 -7.25,43.73 -8.82,64.97 -2.43,28.77 -2.95,31.38 -1.11,58.41 0.59,7.36 1.11,14.72 2.08,21.87 0.07,1.15 0.07,2.15 0.31,3.02 0.62,6.07 1.74,12.36 2.6,18.33 0.17,1.63 0.52,3.19 0.62,4.65 1.11,5.21 1.87,10.83 3.02,16.07 0.52,2.08 1.11,3.92 1.39,5.55 1.11,5 2.22,9.75 3.37,14.79 0.76,1.8 1.35,4.06 1.8,6.04 1.39,4.58 2.78,9.06 4.23,13.12 0.35,2.26 1.39,4.58 1.91,6.49 1.8,4.23 3.09,8.36 4.58,12.25 1.01,2.36 1.53,4.41 2.74,6.77 1.49,3.71 3.19,7.77 5.03,11.49 0.87,2.15 1.87,4.23 2.92,6.39 1.67,3.71 3.47,7.25 5.28,10.62 1.11,2.15 2.43,4.58 3.71,6.49 1.74,3.44 3.54,6.73 5.87,10.1 1.04,1.98 2.53,4.3 3.89,6.49 2.08,3.02 4.23,6.04 6.32,9.06 1.49,1.98 3.02,4.23 4.41,5.97 2.43,3.09 4.58,5.8 6.73,8.71 2.01,1.74 3.12,3.82 5.03,5.97 2.39,2.5 4.48,5 7.08,7.88 1.8,1.7 3.78,3.71 5.34,5.41 2.6,2.6 5.38,4.93 7.88,7.18 1.8,1.98 3.61,3.54 5.45,5.1 2.92,2.26 5.93,4.65 8.64,6.91 2.05,1.39 3.89,2.95 5.52,4.51 3.26,2.22 6.73,4.48 10.27,6.63 1.91,1.15 3.12,2.43 5,3.37 5.28,3.37 10.83,6.25 16,8.82 23.25,12.18 45.43,20.58 75.25,26.97 29.4,5.17 101.35,10.79 119.95,10.79l496.11 0c91.66,0 132.1,28.36 132.1,73.96 0,62.2 -36.89,149.48 -94.16,163.12 -9.68,2.26 -32.42,3.02 -48.73,3.02l-793.97 0c-49.49,0 -164.06,2.5 -208.31,117.35 -25.23,65.49 -68.17,177.91 -115.33,301.26l1111.19 0c247.98,-0.66 468.06,-126.75 605.16,-313.37 21.62,-28.67 41.75,-59.94 59.38,-93.64 5,-9.34 9.75,-19.02 14.06,-28.43 0.28,-0.8 0.62,-1.49 0.97,-2.08 1.21,-2.67 2.33,-5.52 3.61,-8.12 4.06,-8.64 7.88,-17.53 11.49,-26.1 0.62,-1.63 1.15,-3.26 1.91,-4.82 4.23,-10.27 8.4,-21.1 11.77,-31.55 0.87,-1.63 1.11,-3.37 2.05,-4.65 2.78,-9.51 5.9,-18.92 9.09,-28.36 0.24,-1.56 0.52,-3.09 0.87,-4.41 6.73,-21.87 12.18,-43.52 15.97,-64.8 0.35,-0.69 0.45,-1.63 0.52,-2.43 4.16,-21.83 7.25,-43.45 8.82,-64.97 2.6,-28.84 2.78,-31.62 1.21,-58.66 -0.69,-7.43 -1.21,-14.68 -1.98,-22.11 -0.28,-0.97 -0.28,-1.91 -0.62,-2.85 -0.59,-6.14 -1.7,-12.46 -2.57,-18.5 0,-1.39 -0.62,-3.12 -0.69,-4.75 -0.97,-5.1 -1.91,-10.62 -3.02,-16.07 -0.35,-1.98 -0.69,-3.82 -1.21,-5.52 -1.15,-5.03 -2.26,-9.79 -3.54,-14.54 -0.62,-1.98 -1.21,-4.23 -1.84,-6.28 -1.18,-4.41 -2.57,-8.99 -4.23,-13.33 -0.59,-2.05 -1.11,-4.3 -1.8,-6.63 -1.46,-3.99 -3.09,-8.12 -4.58,-12.11 -0.94,-2.26 -1.63,-4.41 -2.67,-6.73 -1.56,-3.82 -3.37,-7.53 -4.93,-11.42 -0.94,-2.15 -2.08,-4.58 -2.78,-6.46 -2.05,-3.82 -3.71,-7.43 -5.41,-10.66 -1.39,-2.15 -2.6,-4.55 -3.71,-6.8 -1.84,-3.37 -3.71,-6.39 -5.8,-9.75 -1.39,-2.19 -2.78,-4.23 -4.23,-6.49 -1.91,-3.19 -3.99,-6.21 -6.39,-9.16 -1.21,-1.98 -2.88,-4.16 -4.34,-6.21 -2.15,-3.02 -4.3,-5.62 -6.66,-8.47 -1.8,-1.84 -3.19,-3.89 -4.72,-5.8 -2.26,-2.78 -4.93,-5.34 -7.46,-8.12 -1.7,-1.8 -3.37,-3.82 -5.07,-5.52 -2.78,-2.53 -5.45,-5.1 -7.95,-7.18 -2.08,-1.8 -3.57,-3.47 -5.55,-5.1 -2.92,-2.26 -5.87,-4.65 -8.89,-6.84 -1.91,-1.8 -3.47,-3.26 -5.28,-4.55 -3.47,-2.43 -6.91,-4.51 -10.2,-6.77 -1.91,-1.21 -3.44,-2.22 -5,-3.26 -5.45,-3.3 -10.38,-6.32 -16.17,-9.16 -23.32,-12.01 -45.02,-25.68 -74.9,-32.14 -55.57,-12.53 -101.17,-11.07 -119.91,-11.07l-669.37 -0.24c11.49,-29.47 38,-98.5 38.18,-98.85 35.19,-92.7 53.59,-99.02 91.7,-112.24 32.31,-11.25 149.03,-12.25 176.42,-12.53l573.09 0 29.92 0c43.52,0 139.98,2.67 183.43,-39.91 48.63,-48.14 69.73,-125.99 129.94,-262.91 0.42,-0.62 0.42,-1.15 0.94,-1.67 18.33,-44.04 54.46,-95.27 70,-120.61l-5.03 0zm-1900.13 122.27c0.17,-0.62 0.59,-1.15 0.69,-1.67 18.33,-44.04 54.35,-95.27 70.32,-120.61l-335.59 0 -1.35 0 -727.68 0 -214.28 5.17c-11.84,0 -23.32,0.52 -34.99,1.39 -259.65,6.84 -546.05,264.12 -688.21,642.92 -116.96,312.26 -104.78,624.94 10.66,821.59 43.45,82.67 104.43,145.77 181.87,181.87 2.95,1.39 5.34,2.43 8.12,3.54 5.17,2.15 10.55,4.58 16.31,6.21 38.04,14.26 91.77,31.2 160.63,32.94 54.11,0.07 710.32,0.07 713.34,0.07 46.75,0.35 133.9,0 174.44,-39.46 48.49,-47.34 69.73,-124.08 129.77,-258.88 0.35,-0.42 0.69,-1.01 0.94,-1.53 18.08,-43.56 54.11,-93.85 70.07,-118.73l-335.48 0 -1.04 0 -3.44 0 -724.48 0 -139.21 0c0,0 43.97,-114.12 44.08,-114.64 35.51,-92.7 53.9,-98.95 92.01,-112.42 35.51,-12.25 172.04,-12.25 181.45,-12.25l576.11 0c1.39,0 21.87,-0.17 47.2,-4.34 33.35,-4.3 66.33,-13.64 87.32,-32.49 48.73,-43.9 69.9,-115.09 130.05,-240.56 0.17,-0.31 0.59,-0.94 0.76,-1.28 18.26,-40.43 54.18,-87.36 70.07,-110.4l-335.41 0 -0.42 0 -652.15 0c1.8,-4.86 4.06,-10.48 6.39,-16.35 10.45,-26.86 30.68,-77.68 34.99,-91.14 0,0 0.1,-0.52 0.1,-0.8 33.53,-83.89 51.64,-89.93 88.37,-103.05 26.72,-9.34 109.92,-11.52 154.07,-12.29l327.19 0 502.77 0c43.84,0 140.5,2.95 183.78,-39.91 48.49,-48.14 69.73,-125.99 129.88,-262.91zm-5986.34 -122.27l-1595.92 0c0,0 -112.73,282.62 -143.86,379.32 -6.21,19.61 -8.78,36.1 34.4,42.76 11.25,1.98 25.86,3.02 44.15,3.02l364.71 0 7.71 0c12.08,0 64.69,18.85 34.46,96.07 -33.53,86.94 -447.9,1169.02 -450.16,1174.53l401.95 0 0.59 0c62.4,0 104.12,-1.35 164.96,-151.01 35.05,-87.08 73.09,-183.26 95.38,-242.95 107.49,-279.43 262.56,-681.79 262.56,-681.79l35.68 -92.81c33.18,-83.54 85.31,-98.5 125.74,-101.59 2.92,-0.17 12.18,-0.45 16.14,-0.45l293.42 0 11.49 0 45.81 0c40.61,0 60.04,-1.74 87.6,-31.62 78.09,-84.69 135.98,-226.64 168.05,-319.69 10.72,-30.92 17.46,-73.79 -4.86,-73.79zm2106.57 0l-71.01 0 -344.92 0 -8.23 0c-4.13,0 -9.82,0 -17.6,0.1 -21.97,0.52 -95.06,0.52 -112.94,2.85 -54.18,7.43 -117.76,11.73 -203.14,78.44l-486.77 413.26c0,0 -180.83,-344.47 -181.45,-345.62 -31.62,-53.03 -74.66,-148.93 -190.86,-149.03l-371.44 0 426.55 811.39 -338.85 884.31 374.35 0 36.03 0c68.55,0 109.15,-17.7 191.83,-231.29 95.72,-248.47 207.72,-541.3 207.72,-541.3l1031.54 -875.6 59.18 -47.51zm1574.33 0l-1464.41 0c0,0 -12.01,27.21 -103.88,270.68 -17.18,45.12 -68.23,154.41 71.57,154.41l1140.31 0.28c0,0 -87.01,230.94 -94.37,245.69 -8.19,16.17 -56.5,126.06 -239.93,126.06l-906.18 0c0,0 -169.75,-9.3 -224.56,133.24 -67.37,175.65 -293.49,765.33 -293.49,765.33l397.78 0c65.32,0 108.53,3.05 169.62,-151.01 28.67,-72.57 72.3,-183.6 94.33,-243.13 27.04,-73.37 54.7,-90.2 149.83,-90.2l199.67 0 45.08 0 272.28 355.89c0,0 98.64,128.45 264.71,128.45l375.5 0 -372.72 -484.34c0,0 167.08,-29.4 315.11,-139.8 169.51,-126.33 162.6,-130.64 273.01,-414.65 110.27,-284.25 152.43,-398.89 152.43,-398.89 0,0 93.05,-258.01 -221.71,-258.01z"/>
  </g>
 </g>
</svg>
